<svg xmlns="http://www.w3.org/2000/svg" width="468" height="1668" fill="none"><path fill="var(--color-blue)" d="M226.878 1.905a1 1 0 1 0-1.407-1.422zm-1.696 1664.405c.065.55.563.94 1.111.88l8.937-1.07a1 1 0 0 0 .874-1.11 1.006 1.006 0 0 0-1.111-.88l-7.944.95-.948-7.94a1.007 1.007 0 0 0-1.112-.88c-.548.07-.94.57-.874 1.12zM223.95 1.99a1 1 0 0 0 1.409 1.42l-1.409-1.42m-4.609 7.42a1 1 0 0 0-1.415-1.413l1.415 1.413m-4.392 1.576a1 1 0 0 0 1.419 1.41l-1.419-1.41m-4.457 7.354a1 1 0 0 0-1.426-1.403l1.426 1.402m-4.332 1.558a1 1 0 1 0 1.429 1.4l-1.429-1.4m-4.307 7.288a1 1 0 1 0-1.436-1.392zm-4.273 1.542a1 1 0 0 0 1.44 1.389l-1.44-1.389m-4.156 7.222a1 1 0 0 0-1.447-1.38l1.447 1.38m-4.214 1.526a1 1 0 1 0 1.45 1.378l-1.45-1.377m-4.008 7.157a1 1 0 0 0-1.458-1.37zm-4.156 1.51a1 1 0 1 0 1.461 1.366l-1.461-1.365m-3.86 7.092a1 1 0 1 0-1.469-1.358l1.469 1.358m-4.099 1.496a1 1 0 1 0 1.473 1.353l-1.473-1.353m-3.713 7.026a1 1 0 1 0-1.479-1.346l1.479 1.346m-4.042 1.481a1 1 0 0 0 1.484 1.341l-1.484-1.34m-3.567 6.96a1 1 0 1 0-1.491-1.332l1.491 1.333m-4.04 1.53a1 1 0 1 0 1.496 1.328l-1.496-1.329m-4.142 7.718a1 1 0 0 0-1.505-1.318zm-4.284 1.865a1 1 0 1 0 1.508 1.313l-1.508-1.313m-3.955 7.635a.999.999 0 1 0-1.518-1.302l1.518 1.302m-4.211 1.848a1 1 0 0 0 1.523 1.297l-1.523-1.297m-3.767 7.551a1 1 0 0 0-1.532-1.286l1.532 1.286m-4.139 1.83a1.001 1.001 0 0 0 1.537 1.281zm-3.582 7.469a1 1 0 1 0-1.546-1.27zm-4.067 1.814a1 1 0 0 0 1.551 1.263zm-3.398 7.384a1 1 0 0 0-1.56-1.251zm-3.997 1.799a1 1 0 1 0 1.565 1.246zm-3.216 7.302a1 1 0 0 0-1.575-1.233zm-3.928 1.785a1 1 0 1 0 1.579 1.227zm-3.035 7.218a1 1 0 1 0-1.589-1.213zm-3.86 1.773a1 1 0 1 0 1.594 1.207zm-3.502 8.006a1 1 0 0 0-1.606-1.192zm-4.117 2.208a1 1 0 1 0 1.612 1.184l-1.612-1.184m-3.29 7.927a1 1 0 0 0-1.623-1.168l1.624 1.168m-4.026 2.191a1 1 0 1 0 1.63 1.159l-1.63-1.159m-3.058 7.819a1 1 0 0 0-1.641-1.143l1.641 1.143m-3.938 2.175a1 1 0 0 0 1.647 1.134l-1.647-1.134m-2.83 7.713a1 1 0 0 0-1.659-1.117l1.66 1.117m-3.85 2.161a1 1 0 0 0 1.665 1.108l-1.666-1.108m-2.603 7.605a1 1 0 1 0-1.678-1.088l1.678 1.088m-3.766 2.15a1 1 0 0 0 1.683 1.079l-1.683-1.079m-2.379 7.498a1 1 0 0 0-1.696-1.06l1.697 1.06m-3.682 2.14a1 1 0 0 0 1.702 1.05l-1.702-1.05m-2.595 8.123a1 1 0 0 0-1.717-1.027l1.717 1.027m-3.875 2.608a1 1 0 1 0 1.723 1.015l-1.723-1.015m-2.447 8.21a1 1 0 1 0-1.737-.99l1.737.99m-3.764 2.595a1 1 0 1 0 1.745.978zm-2.164 8.073a1 1 0 0 0-1.759-.952l1.76.952m-3.655 2.584a1 1 0 1 0 1.766.938l-1.766-.938m-1.885 7.935a1 1 0 0 0-1.78-.912l1.78.912m-3.548 2.576a1 1 0 0 0 1.787.898l-1.787-.898m-1.61 7.797a1 1 0 1 0-1.8-.868l1.8.868m-3.443 2.572a1 1 0 1 0 1.808.854l-1.808-.854m-1.458 7.924a1 1 0 1 0-1.823-.823l1.823.823m-3.55 3.053a1 1 0 0 0 1.83.805l-1.83-.805m-1.45 8.461a1 1 0 0 0-1.846-.77l1.846.77m-3.414 3.047a1 1 0 0 0 1.853.751l-1.853-.751m-1.112 8.287a1 1 0 0 0-1.868-.713l1.868.713m-3.28 3.045a1 1 0 1 0 1.876.694l-1.876-.694m-.78 8.114a1 1 0 0 0-1.89-.654zm-3.149 3.048a1 1 0 1 0 1.897.633l-1.897-.633m-.455 7.939a1 1 0 0 0-1.91-.592zm-3.018 3.055a.999.999 0 1 0 1.917.57l-1.917-.57m-.325 8.451a1 1 0 0 0-1.93-.524l1.93.524m-2.995 3.505a1 1 0 0 0 1.937.499l-1.937-.499m.004 8.439a1 1 0 1 0-1.949-.447l1.95.447m-2.831 3.515a1 1 0 1 0 1.955.422l-1.955-.422m.38 8.229a1 1 0 0 0-1.965-.369l1.965.369m-2.67 3.529a1 1 0 1 0 1.971.342l-1.97-.342m.747 8.02a1 1 0 1 0-1.979-.287l1.98.287m-2.509 3.548a1 1 0 0 0 1.983.26l-1.983-.26m1.063 8.191a1 1 0 1 0-1.99-.201l1.99.201M.94 364.701a1 1 0 0 0 1.993.17l-1.993-.17m1.428 8.271a1 1 0 1 0-1.997-.108l1.997.108m-2.184 3.939a1 1 0 0 0 1.999.076l-1.999-.076m1.82 8.037a1 1 0 0 0-2-.013l2 .013M.01 388.913a1 1 0 0 0 2-.019l-2 .019m2.197 7.808a1 1 0 1 0-1.998.082zm-1.806 3.994a1 1 0 1 0 1.996-.114l-1.996.114m2.59 7.927a1 1 0 1 0-1.993.18l1.992-.18m-1.592 4.23a1 1 0 1 0 1.989-.213l-1.99.213m2.977 7.754a1 1 0 0 0-1.98.279l1.98-.279m-1.385 4.261a1 1 0 0 0 1.976-.311l-1.976.311m3.344 7.523a1 1 0 1 0-1.964.377l1.964-.377m-1.18 4.294a1.001 1.001 0 0 0 1.958-.408l-1.958.408m3.694 7.3a1 1 0 1 0-1.944.471l1.944-.471m-.965 4.378a1 1 0 0 0 1.936-.502l-1.936.502m4.065 7.206a1 1 0 0 0-1.92.563l1.92-.563m-.757 4.417a1 1 0 1 0 1.91-.592l-1.91.592m4.392 6.998a1 1 0 0 0-1.891.65zm-.554 4.445a1 1 0 1 0 1.881-.678l-1.881.678m4.704 6.8a1 1 0 0 0-1.86.733l1.86-.733m-.356 4.472a1 1 0 1 0 1.85-.76l-1.85.76m4.977 6.559a1 1 0 0 0-1.828.811l1.828-.811m-.184 4.452a1 1 0 1 0 1.817-.835l-1.817.835m5.237 6.349a1 1 0 0 0-1.795.883l1.795-.883m0 4.475a1 1 0 0 0 1.784-.906l-1.783.906m5.498 6.187a1 1 0 1 0-1.76.949zm.18 4.495a1 1 0 1 0 1.749-.971l-1.75.971m5.745 6.035a1 1 0 0 0-1.726 1.011l1.726-1.011m.328 4.473a.999.999 0 1 0 1.715-1.03zm5.855 5.698a1 1 0 0 0-1.692 1.066zm.45 4.429a1 1 0 0 0 1.682-1.083l-1.681 1.083m6.066 5.573a1 1 0 1 0-1.66 1.117l1.66-1.117m.601 4.444a1 1 0 0 0 1.649-1.132l-1.649 1.132m6.264 5.458a1 1 0 1 0-1.628 1.162zm.746 4.456a1 1 0 0 0 1.617-1.176l-1.617 1.176m6.428 5.32a1 1 0 0 0-1.597 1.204l1.597-1.204m.795 4.353a1.001 1.001 0 0 0 1.588-1.216l-1.588 1.216m6.448 5.031a1 1 0 1 0-1.569 1.24l1.57-1.24m.917 4.362a1 1 0 0 0 1.56-1.251l-1.56 1.251m6.605 4.949a1 1 0 1 0-1.543 1.273l1.543-1.273m1.032 4.372a1 1 0 0 0 1.534-1.284l-1.534 1.284m6.752 4.873a1 1 0 1 0-1.518 1.303zm1.14 4.38a1 1 0 0 0 1.51-1.312l-1.51 1.312m6.819 4.725a1 1 0 1 0-1.495 1.329l1.495-1.329m1.145 4.282a1.001 1.001 0 0 0 1.488-1.338l-1.488 1.338m6.824 4.536a1 1 0 0 0-1.474 1.352zm1.234 4.289a1 1 0 1 0 1.467-1.359zm6.936 4.487a1 1 0 1 0-1.454 1.373zm1.318 4.296a.999.999 0 1 0 1.448-1.379zm7.04 4.444a1 1 0 1 0-1.437 1.391zm1.394 4.303a1 1 0 1 0 1.431-1.397zm7.065 4.333a1 1 0 0 0-1.421 1.407zm1.375 4.222a1 1 0 1 0 1.416-1.412zm7.048 4.201a1 1 0 0 0-1.408 1.421zm1.435 4.229a1 1 0 1 0 1.404-1.425zm7.125 4.178a1 1 0 1 0-1.395 1.433zm1.49 4.236a1 1 0 0 0 1.392-1.437zm7.195 4.16a1 1 0 1 0-1.385 1.442zm1.538 4.243a1.001 1.001 0 0 0 1.382-1.446zm7.22 4.112a.999.999 0 1 0-1.376 1.451zm1.511 4.184a.999.999 0 1 0 1.373-1.453zm7.171 4.008a1.001 1.001 0 0 0-1.369 1.458zm1.545 4.191a1 1 0 0 0 1.368-1.459zm7.218 4.006a1 1 0 0 0-1.363 1.464zm1.576 4.2a1 1 0 1 0 1.362-1.465zm7.258 4.009a1 1 0 0 0-1.36 1.467zm1.599 4.207a1 1 0 1 0 1.359-1.467zm7.292 4.018a1 1 0 1 0-1.357 1.469zm1.574 4.175a1 1 0 0 0 1.356-1.47zm7.222 3.941a1 1 0 1 0-1.356 1.47zm1.582 4.18a1 1 0 0 0 1.356-1.471zm7.243 3.958a1 1 0 0 0-1.357 1.47zm1.59 4.189a1 1 0 0 0 1.357-1.47zm7.256 3.98a1 1 0 0 0-1.358 1.469zm1.593 4.199a1 1 0 0 0 1.359-1.468zm7.264 4.006a1 1 0 0 0-1.361 1.466zm1.588 4.206a1 1 0 1 0 1.362-1.464zm7.214 3.99a1 1 0 0 0-1.366 1.461zm1.556 4.194a1 1 0 1 0 1.367-1.46zm7.209 4.025a1 1 0 0 0-1.371 1.456zm1.545 4.205a.999.999 0 1 0 1.373-1.454zm7.198 4.065a1 1 0 1 0-1.378 1.449zm1.527 4.215a1 1 0 1 0 1.38-1.447zm7.182 4.11a1 1 0 1 0-1.387 1.441zm1.504 4.227a1 1 0 0 0 1.389-1.439zm7.152 4.151a1 1 0 1 0-1.396 1.432zm1.47 4.232a1 1 0 1 0 1.399-1.429zm7.118 4.2a1 1 0 0 0-1.407 1.422zm1.438 4.244a1 1 0 1 0 1.41-1.418zm7.083 4.258a.999.999 0 1 0-1.418 1.41zm1.401 4.256a1 1 0 1 0 1.423-1.405zm7.043 4.321a1 1 0 1 0-1.432 1.396zm1.358 4.268a1 1 0 1 0 1.437-1.391zm6.997 4.391a.999.999 0 1 0-1.446 1.381zm1.32 4.289a1.001 1.001 0 0 0 1.452-1.376zm6.959 4.479a1 1 0 1 0-1.462 1.364zm1.267 4.301a1 1 0 0 0 1.468-1.359zm6.899 4.557a1 1 0 1 0-1.479 1.346zm1.211 4.313a1 1 0 0 0 1.485-1.34zm6.833 4.64a1 1 0 1 0-1.497 1.326zm1.148 4.326a1 1 0 0 0 1.503-1.32zm6.761 4.727a1 1 0 1 0-1.516 1.305zm1.087 4.343a.999.999 0 1 0 1.522-1.297zm6.71 4.855a1 1 0 1 0-1.535 1.282zm1.026 4.368a1 1 0 1 0 1.542-1.273zm6.624 4.954a1 1 0 0 0-1.557 1.256zm.949 4.38a1 1 0 1 0 1.563-1.247zm6.531 5.059a1 1 0 0 0-1.579 1.228zm.867 4.391a1 1 0 1 0 1.586-1.218zm6.432 5.169a1 1 0 0 0-1.601 1.198zm.782 4.403a1 1 0 1 0 1.608-1.189zm6.34 5.306a1 1 0 1 0-1.624 1.167zm.703 4.429a1 1 0 1 0 1.632-1.156zm6.232 5.436a1 1 0 1 0-1.648 1.133zm.608 4.44a1 1 0 1 0 1.656-1.121zm6.11 5.564a1 1 0 0 0-1.673 1.096zm.508 4.45a1 1 0 0 0 1.681-1.084zm5.981 5.697a1 1 0 1 0-1.697 1.058zm.405 4.459a1 1 0 1 0 1.705-1.045zm5.843 5.833a1 1 0 0 0-1.722 1.017zm.295 4.465a1 1 0 1 0 1.73-1.003zm5.696 5.974a1 1 0 1 0-1.747.973zm.184 4.473a1 1 0 1 0 1.756-.959zm5.545 6.123a1 1 0 0 0-1.772.928zm.07 4.481a1 1 0 1 0 1.779-.912zm5.385 6.279a1 1 0 1 0-1.796.88zm-.049 4.487a1 1 0 1 0 1.804-.863zm5.217 6.441a1 1 0 1 0-1.819.83zm-.187 4.454a1 1 0 1 0 1.827-.812zm5.003 6.517a1 1 0 1 0-1.842.777zm-.312 4.453a1 1 0 1 0 1.85-.76zm4.824 6.685a1 1 0 1 0-1.864.724zm-.436 4.462c.195.51.772.77 1.289.58.516-.2.777-.773.583-1.289zm4.636 6.86a.996.996 0 0 0-1.276-.61.992.992 0 0 0-.609 1.27zm-.563 4.46a1 1 0 0 0 1.892-.65zm4.44 7.04a.996.996 0 0 0-1.257-.65c-.526.17-.816.73-.648 1.26zm-.693 4.46c.163.53.723.83 1.251.66a.997.997 0 0 0 .66-1.25zm4.172 7.01a1.004 1.004 0 0 0-1.236-.69c-.531.16-.838.71-.686 1.24zm-.852 4.36c.146.53.697.84 1.229.69a.994.994 0 0 0 .699-1.23zm3.968 7.17a.999.999 0 0 0-1.215-.72c-.536.14-.859.68-.724 1.22zm-.979 4.36a1 1 0 1 0 1.943-.47zm3.758 7.36a1.005 1.005 0 0 0-1.192-.76c-.539.12-.88.66-.761 1.2zm-1.107 4.36a1 1 0 0 0 1.184.78c.541-.12.887-.65.774-1.19zm3.541 7.56a.998.998 0 0 0-1.168-.8c-.542.1-.9.62-.798 1.17zm-1.237 4.36a1 1 0 1 0 1.969-.35zm3.296 7.63a1.005 1.005 0 0 0-1.142-.84c-.546.09-.919.6-.834 1.15zm-1.395 4.17a1 1 0 0 0 1.979-.29zm3.034 7.53a.998.998 0 0 0-1.116-.87c-.548.07-.937.57-.868 1.12zm-1.515 4.17a1 1 0 0 0 1.107.88c.549-.07.943-.56.88-1.11zm2.815 7.71a1 1 0 0 0-1.991.19zm-1.637 4.17c.046.55.529.96 1.08.92.55-.05.959-.53.913-1.08zm2.587 7.91c-.035-.56-.51-.97-1.061-.94-.551.04-.97.51-.935 1.06zm-1.759 4.17c.03.55.501.97 1.052.94.552-.03.975-.5.945-1.05zm2.353 8.09a1.004 1.004 0 0 0-1.033-.97c-.552.02-.985.48-.966 1.04zm-1.883 4.18c.013.55.471.99 1.023.97a.997.997 0 0 0 .976-1.02zm2.108 7.83c-.002-.55-.452-1-1.004-1a.999.999 0 0 0-.996 1.01zm-2.001 3.89c-.003.55.443 1 .995 1.01.552 0 1.002-.45 1.005-1zm1.889 7.88a.998.998 0 0 0-.977-1.02.992.992 0 0 0-1.023.97zm-2.11 3.9a1 1 0 0 0 1.999.06zm1.666 8.04a1.003 1.003 0 0 0-.948-1.05c-.552-.02-1.022.4-1.05.95zm-2.219 3.91a.992.992 0 0 0 .938 1.05.99.99 0 0 0 1.058-.93zm1.437 8.22a1.01 1.01 0 0 0-.919-1.08 1.003 1.003 0 0 0-1.075.92zm-2.33 3.91a.998.998 0 0 0 .91 1.08 1 1 0 0 0 1.083-.91zm1.202 8.4a1.001 1.001 0 0 0-1.989-.21zm-2.44 3.91a1 1 0 1 0 1.987.23zm1.032 8.03a1.007 1.007 0 0 0-.862-1.12c-.548-.07-1.05.32-1.121.87zm-2.498 3.57a.994.994 0 0 0 .854 1.12.991.991 0 0 0 1.127-.85zm.848 8a.995.995 0 0 0-.836-1.14.997.997 0 0 0-1.141.83zm-2.592 3.57a.99.99 0 0 0 .826 1.14.998.998 0 0 0 1.148-.82zm.637 8.15a1.003 1.003 0 0 0-.809-1.16c-.543-.1-1.063.27-1.16.81zm-2.687 3.58a.995.995 0 0 0 .8 1.16.99.99 0 0 0 1.167-.8zm.422 8.3a.993.993 0 0 0-.782-1.17.999.999 0 0 0-1.178.78zm-2.782 3.59c-.114.54.232 1.07.773 1.19.54.11 1.071-.24 1.184-.78zm.202 8.46a.992.992 0 0 0-.755-1.19.997.997 0 0 0-1.196.75zm-2.879 3.6a.996.996 0 0 0 .747 1.2.998.998 0 0 0 1.201-.74zm-.021 8.62a1.01 1.01 0 0 0-.729-1.22c-.536-.13-1.079.2-1.212.73zm-2.872 3.2c-.137.54.186 1.08.721 1.22.535.13 1.079-.19 1.216-.72zm-.018 7.94a1 1 0 1 0-1.931-.52zm-2.95 3.21c-.147.53.165 1.08.697 1.23.532.14 1.083-.17 1.23-.7zm-.207 8.06a1.003 1.003 0 0 0-.682-1.24 1 1 0 0 0-1.239.69zm-3.03 3.22c-.157.53.145 1.09.674 1.25a1.01 1.01 0 0 0 1.244-.68zm-.398 8.2a.997.997 0 0 0-.659-1.25.995.995 0 0 0-1.252.66zm-3.111 3.23c-.167.53.125 1.09.651 1.26.527.16 1.089-.13 1.256-.66zm-.593 8.33a1.008 1.008 0 0 0-.636-1.27 1 1 0 0 0-1.263.64zm-3.192 3.24c-.177.52.105 1.09.628 1.27.523.17 1.091-.11 1.267-.63zm-.792 8.46a1 1 0 1 0-1.887-.67zm-3.274 3.26a.99.99 0 0 0 .606 1.27.994.994 0 0 0 1.278-.6zm-.992 8.58a.993.993 0 0 0-.591-1.28.991.991 0 0 0-1.285.59zm-3.251 2.99a1 1 0 0 0 .584 1.29.999.999 0 0 0 1.288-.58zm-.854 7.85a.999.999 0 1 0-1.864-.72zm-3.262 2.86a.993.993 0 0 0 .564 1.29c.514.2 1.095-.05 1.297-.56zm-1.019 7.95c.207-.52-.04-1.1-.552-1.31-.512-.2-1.095.04-1.302.56zm-3.33 2.87a.996.996 0 0 0 .546 1.3.998.998 0 0 0 1.305-.54zm-1.186 8.05c.215-.5-.024-1.09-.533-1.31a1.006 1.006 0 0 0-1.31.54zm-3.397 2.89a.998.998 0 0 0 .527 1.31.998.998 0 0 0 1.313-.53zm-1.355 8.16a.993.993 0 0 0-.514-1.31.989.989 0 0 0-1.318.51zm-3.465 2.9a.997.997 0 0 0 .508 1.32.992.992 0 0 0 1.32-.51zm-1.527 8.27a.996.996 0 0 0-.495-1.32 1 1 0 0 0-1.325.49zm-3.534 2.92a.993.993 0 0 0 .49 1.32.986.986 0 0 0 1.327-.49zm-1.699 8.38a.998.998 0 0 0-.478-1.33.992.992 0 0 0-1.331.47zm-3.604 2.93a.996.996 0 0 0 .472 1.33.996.996 0 0 0 1.333-.47zm-1.853 8.44c.243-.5.036-1.1-.46-1.34a1.007 1.007 0 0 0-1.337.46zm-3.462 2.52c-.244.49-.041 1.09.455 1.34.495.24 1.095.04 1.339-.46zm-1.609 7.72a.998.998 0 0 0-.445-1.34 1 1 0 0 0-1.342.44zm-3.518 2.53c-.25.5-.053 1.1.44 1.35.492.25 1.094.05 1.344-.44zm-1.751 7.81a.99.99 0 0 0-.429-1.34.996.996 0 0 0-1.348.43zm-3.573 2.55c-.256.49-.066 1.09.424 1.35.49.25 1.094.06 1.349-.43zm-1.894 7.9a.995.995 0 0 0-.415-1.35.995.995 0 0 0-1.352.41zm-3.631 2.56a.998.998 0 0 0 .41 1.35.999.999 0 0 0 1.354-.41zm-2.038 7.98a.993.993 0 0 0-.4-1.35.99.99 0 0 0-1.356.4zm-3.687 2.58c-.266.48-.089 1.09.395 1.36a1.01 1.01 0 0 0 1.358-.4zm-2.184 8.07a1 1 0 0 0-.386-1.36.993.993 0 0 0-1.36.39zm-3.746 2.59a.998.998 0 0 0 .381 1.36c.482.27 1.091.1 1.362-.38zm-2.331 8.16a.993.993 0 0 0-.371-1.36.995.995 0 0 0-1.365.37zm-3.803 2.61a.992.992 0 0 0 .366 1.36.993.993 0 0 0 1.366-.36zm-2.48 8.25a1.002 1.002 0 0 0-1.726-1.02zm-3.863 2.62a1 1 0 0 0 .353 1.37c.476.28 1.089.12 1.37-.35zm-2.391 7.94a.995.995 0 0 0-.344-1.37.997.997 0 0 0-1.372.34zm-3.671 2.23a.999.999 0 0 0 1.713 1.03zm-2.257 7.58c.287-.48.138-1.09-.333-1.38a1 1 0 0 0-1.375.33zm-3.718 2.24a.994.994 0 0 0 .329 1.37 1 1 0 0 0 1.375-.33zm-2.378 7.65a1 1 0 1 0-1.698-1.06zm-3.765 2.25a1.001 1.001 0 1 0 1.696 1.06zm-2.499 7.72c.295-.46.157-1.08-.31-1.38a1.011 1.011 0 0 0-1.38.31zm-3.812 2.27a.996.996 0 0 0 .305 1.38c.466.3 1.084.16 1.381-.3zm-2.622 7.8c.299-.47.166-1.09-.298-1.39a1.004 1.004 0 0 0-1.383.3zm-3.861 2.28a.998.998 0 0 0 .295 1.38c.463.3 1.082.17 1.383-.29zm-2.744 7.86a.995.995 0 0 0-.287-1.38.994.994 0 0 0-1.385.28zm-3.909 2.3c-.304.46-.178 1.08.283 1.39.461.3 1.081.17 1.386-.29zm-2.869 7.94c.307-.46.183-1.08-.276-1.39a1.004 1.004 0 0 0-1.387.27zm-3.958 2.31c-.308.46-.186 1.08.273 1.39.458.31 1.08.18 1.387-.27zm-2.993 8.01c.31-.46.191-1.08-.265-1.39a.997.997 0 0 0-1.39.26zm-4.008 2.33c-.311.45-.194 1.08.262 1.39a1 1 0 0 0 1.39-.27zm-3.118 8.07a1 1 0 1 0-1.646-1.13zm-4.058 2.35a.997.997 0 0 0 .251 1.39.99.99 0 0 0 1.392-.25zm-2.732 7.42a1.01 1.01 0 0 0-.246-1.4 1.008 1.008 0 0 0-1.392.25zm-3.829 1.97a.995.995 0 0 0 .242 1.39 1 1 0 0 0 1.394-.24zm-2.798 7.42a.995.995 0 0 0-.236-1.39.998.998 0 0 0-1.394.23zm-3.868 1.99a1 1 0 0 0 1.628 1.16zm-2.899 7.48c.323-.45.221-1.08-.227-1.4a1.001 1.001 0 0 0-1.396.23zm-3.908 1.99c-.324.45-.223 1.08.224 1.4a1.01 1.01 0 0 0 1.397-.22zm-3.002 7.54c.326-.45.228-1.07-.218-1.4a1.012 1.012 0 0 0-1.398.22zm-3.948 2.01c-.326.45-.23 1.07.216 1.4a.993.993 0 0 0 1.397-.22zm-3.105 7.6a1 1 0 0 0-.21-1.4.993.993 0 0 0-1.398.21zm-3.989 2.02a1 1 0 1 0 1.607 1.19zm-3.207 7.65c.33-.44.24-1.06-.202-1.4a.996.996 0 0 0-1.4.21zm-4.03 2.04c-.332.45-.243 1.07.198 1.41.442.33 1.069.24 1.401-.2zm-3.312 7.71a1 1 0 0 0-.193-1.4 1.004 1.004 0 0 0-1.401.2zm-4.072 2.06a.998.998 0 0 0 .191 1.4.994.994 0 0 0 1.401-.19zm-3.416 7.77a1.01 1.01 0 0 0-.185-1.41 1.005 1.005 0 0 0-1.402.19zm-4.113 2.07a.998.998 0 0 0 .182 1.4c.438.34 1.066.25 1.402-.18zm-3.522 7.82a.996.996 0 0 0-.177-1.4.996.996 0 0 0-1.403.18zm-4.155 2.09a.996.996 0 0 0 .174 1.4c.436.34 1.064.26 1.404-.17zm-3.627 7.88a.996.996 0 0 0-.169-1.4.996.996 0 0 0-1.404.17zM225.471.483l-1.521 1.508 1.409 1.42 1.519-1.506-1.407-1.422m-7.545 7.514c-.996.998-1.989 1.994-2.977 2.99l1.419 1.409c.987-.994 1.978-1.99 2.973-2.986l-1.415-1.413m-8.86 8.94c-.973.989-1.942 1.976-2.906 2.961l1.429 1.4c.964-.985 1.931-1.971 2.903-2.958l-1.426-1.403m-8.649 8.857c-.949.98-1.895 1.958-2.837 2.934l1.44 1.389c.941-.976 1.885-1.953 2.833-2.931l-1.436-1.392m-8.44 8.775c-.926.971-1.849 1.94-2.767 2.907l1.45 1.378c.917-.967 1.839-1.934 2.764-2.904l-1.447-1.38m-8.233 8.695c-.903.961-1.803 1.921-2.698 2.88l1.461 1.365c.895-.957 1.793-1.916 2.695-2.876l-1.458-1.37m-8.027 8.613c-.88.953-1.757 1.904-2.63 2.854l1.473 1.353a1300.1 1300.1 0 0 1 2.626-2.85l-1.469-1.357m-7.822 8.534c-.858.944-1.713 1.886-2.563 2.827l1.484 1.341c.849-.94 1.702-1.88 2.558-2.822l-1.479-1.346m-7.621 8.455c-.853.955-1.703 1.91-2.549 2.861l1.496 1.328c.844-.95 1.692-1.903 2.544-2.856l-1.491-1.333m-8.196 9.262a1214.03 1214.03 0 0 0-2.779 3.183l1.508 1.313a1431.31 1431.31 0 0 1 2.776-3.178zm-8.252 9.516c-.902 1.052-1.8 2.102-2.693 3.15l1.523 1.297c.891-1.047 1.787-2.095 2.688-3.145l-1.518-1.302m-7.992 9.415c-.873 1.04-1.742 2.08-2.607 3.116l1.537 1.281c.862-1.035 1.73-2.072 2.602-3.11l-1.532-1.287m-7.735 9.315c-.845 1.03-1.685 2.058-2.521 3.084l1.551 1.263c.834-1.024 1.673-2.05 2.516-3.077zm-7.479 9.217a955.78 955.78 0 0 0-2.437 3.05l1.565 1.246a952.005 952.005 0 0 1 2.432-3.045zm-7.228 9.119c-.789 1.008-1.573 2.014-2.353 3.018l1.579 1.227c.779-1.002 1.561-2.006 2.349-3.012zm-6.977 9.023c-.762.997-1.519 1.992-2.271 2.986l1.594 1.207c.751-.991 1.506-1.985 2.266-2.98zm-7.38 9.8a890.818 890.818 0 0 0-2.51 3.4l1.612 1.184a836.502 836.502 0 0 1 2.505-3.392l-1.606-1.192m-7.423 10.159a773.42 773.42 0 0 0-2.403 3.359l1.63 1.159a835.72 835.72 0 0 1 2.397-3.35l-1.624-1.168m-7.102 10.035a863.352 863.352 0 0 0-2.297 3.318l1.647 1.134a735.319 735.319 0 0 1 2.291-3.309l-1.641-1.143m-6.786 9.914a755.222 755.222 0 0 0-2.192 3.278l1.666 1.108a646.353 646.353 0 0 1 2.186-3.269l-1.66-1.117m-6.472 9.795a720.312 720.312 0 0 0-2.088 3.238l1.683 1.079c.689-1.074 1.383-2.15 2.083-3.229zm-6.163 9.676a678.911 678.911 0 0 0-1.986 3.2l1.702 1.05a620.189 620.189 0 0 1 1.98-3.19l-1.696-1.06m-6.297 10.296a585.606 585.606 0 0 0-2.159 3.635l1.723 1.015c.71-1.205 1.427-2.413 2.152-3.623l-1.717-1.027m-6.343 10.855a530.596 530.596 0 0 0-2.027 3.585l1.745.978a580.569 580.569 0 0 1 2.02-3.573l-1.738-.99m-5.95 10.706a537.923 537.923 0 0 0-1.896 3.536l1.766.938a545.324 545.324 0 0 1 1.89-3.522l-1.76-.952m-5.56 10.559a512.261 512.261 0 0 0-1.77 3.488l1.788.898a473.52 473.52 0 0 1 1.761-3.474l-1.78-.912m-5.18 10.417a466.215 466.215 0 0 0-1.642 3.44l1.808.854a482.358 482.358 0 0 1 1.636-3.426l-1.802-.868m-4.923 10.541a434.505 434.505 0 0 0-1.727 3.876l1.83.805a430.516 430.516 0 0 1 1.72-3.858l-1.823-.823m-5.023 11.567a416.81 416.81 0 0 0-1.568 3.817l1.853.751a404.184 404.184 0 0 1 1.561-3.798l-1.846-.77m-4.548 11.391a393.88 393.88 0 0 0-1.412 3.758l1.876.694c.46-1.243.928-2.489 1.404-3.739l-1.868-.713m-4.082 11.218a359.796 359.796 0 0 0-1.259 3.702l1.897.633a358.15 358.15 0 0 1 1.252-3.681l-1.89-.654m-3.624 11.049a342.5 342.5 0 0 0-1.108 3.647l1.917.57c.358-1.205.726-2.413 1.101-3.625l-1.91-.592m-3.363 11.574c-.365 1.347-.72 2.69-1.065 4.029l1.937.499a325.8 325.8 0 0 1 1.058-4.004l-1.93-.524m-3.01 12.021a304.594 304.594 0 0 0-.882 3.962l1.955.422c.282-1.309.574-2.621.876-3.937l-1.949-.447m-2.467 11.822a290.32 290.32 0 0 0-.704 3.898l1.97.342c.224-1.287.457-2.577.7-3.871l-1.966-.369m-1.937 11.631c-.186 1.281-.363 2.56-.53 3.835l1.983.26c.166-1.266.341-2.535.526-3.808l-1.979-.287m-1.457 11.825c-.14 1.376-.267 2.749-.384 4.117l1.993.17c.116-1.358.243-2.72.38-4.086l-1.99-.201m-.953 12.28a257.61 257.61 0 0 0-.187 4.047l1.999.076c.05-1.335.112-2.673.185-4.015l-1.997-.108Zm-.367 12.071c-.008 1.33-.006 2.656.006 3.978l2-.019a248.69 248.69 0 0 1-.006-3.946l-2-.013Zm.205 11.868c.053 1.308.117 2.612.192 3.912l1.996-.114a244.32 244.32 0 0 1-.19-3.88l-1.998.082ZM1 408.822c.122 1.354.255 2.704.4 4.05l1.989-.213a241.704 241.704 0 0 1-.398-4.017l-1.992.18m1.397 12.083c.188 1.331.386 2.659.595 3.982l1.976-.311c-.208-1.313-.404-2.63-.59-3.95l-1.981.279m1.975 11.882c.251 1.309.512 2.615.784 3.917l1.958-.408c-.27-1.292-.529-2.587-.778-3.886l-1.964.377m2.534 11.688c.316 1.305.642 2.608.979 3.907l1.936-.502a251.999 251.999 0 0 1-.971-3.876zm3.124 11.676a258.67 258.67 0 0 0 1.163 3.854l1.91-.592a259.565 259.565 0 0 1-1.153-3.825zm3.664 11.502a263.45 263.45 0 0 0 1.337 3.795l1.881-.678a268.279 268.279 0 0 1-1.327-3.767l-1.891.65m4.18 11.328c.493 1.25.994 2.496 1.505 3.739l1.85-.76a280.448 280.448 0 0 1-1.494-3.712l-1.86.733m4.654 11.109a294.72 294.72 0 0 0 1.644 3.641l1.817-.835a297.616 297.616 0 0 1-1.633-3.617zm5.086 10.873c.59 1.2 1.189 2.397 1.796 3.592l1.783-.906a304.28 304.28 0 0 1-1.784-3.569l-1.795.883m5.533 10.728a336.716 336.716 0 0 0 1.94 3.546l1.749-.971a332.61 332.61 0 0 1-1.929-3.524zm5.96 10.592c.676 1.156 1.361 2.31 2.053 3.462l1.715-1.03a351.627 351.627 0 0 1-2.043-3.443l-1.726 1.011m6.216 10.226a391.622 391.622 0 0 0 2.143 3.363l1.681-1.083a401.074 401.074 0 0 1-2.132-3.346zm6.548 10.053c.747 1.11 1.501 2.219 2.261 3.327l1.649-1.132a413.744 413.744 0 0 1-2.25-3.312zm6.897 9.947c.785 1.1 1.577 2.198 2.374 3.294l1.617-1.176a470.826 470.826 0 0 1-2.363-3.28zm7.204 9.818a500.54 500.54 0 0 0 2.393 3.149l1.588-1.216a496.64 496.64 0 0 1-2.383-3.137l-1.597 1.204m7.272 9.42a543.433 543.433 0 0 0 2.486 3.122l1.56-1.251a571.415 571.415 0 0 1-2.477-3.111l-1.569 1.24m7.548 9.344a630.292 630.292 0 0 0 2.575 3.099l1.534-1.284a620.435 620.435 0 0 1-2.566-3.088l-1.543 1.273m7.81 9.275a633.798 633.798 0 0 0 2.658 3.077l1.51-1.312a624.604 624.604 0 0 1-2.651-3.068l-1.518 1.303m7.981 9.131a788.76 788.76 0 0 0 2.64 2.953l1.488-1.338a691.61 691.61 0 0 1-2.633-2.944l-1.495 1.329m7.99 8.841c.899.98 1.802 1.959 2.708 2.937l1.467-1.359a806.947 806.947 0 0 1-2.701-2.93zm8.19 8.797c.92.975 1.844 1.949 2.772 2.923l1.448-1.379c-.925-.972-1.847-1.944-2.766-2.917zm8.375 8.758c.941.971 1.884 1.942 2.831 2.912l1.431-1.397c-.945-.968-1.886-1.937-2.825-2.906zm8.475 8.652c.929.939 1.861 1.877 2.796 2.815l1.416-1.412c-.933-.936-1.863-1.873-2.791-2.81zm8.436 8.437c.946.936 1.893 1.872 2.843 2.808l1.404-1.425c-.949-.934-1.895-1.869-2.839-2.804zm8.573 8.419c.959.934 1.921 1.869 2.885 2.803l1.392-1.437c-.963-.933-1.924-1.866-2.882-2.799zm8.695 8.405c.972.934 1.946 1.867 2.923 2.801l1.382-1.446c-.976-.932-1.949-1.865-2.92-2.797zm8.767 8.364c.961.911 1.923 1.822 2.887 2.733l1.373-1.453-2.884-2.731zm8.689 8.199c.97.911 1.941 1.822 2.914 2.733l1.368-1.459c-.973-.911-1.944-1.822-2.913-2.732zm8.769 8.203 2.939 2.736 1.362-1.465c-.981-.912-1.96-1.823-2.938-2.735zm8.837 8.212 2.959 2.74 1.359-1.467-2.958-2.74zm8.894 8.227 2.931 2.706 1.356-1.47-2.93-2.705zm8.797 8.117 2.938 2.71 1.356-1.471-2.938-2.709zm8.824 8.138 2.947 2.719 1.357-1.47-2.947-2.719zm8.845 8.168c.984.909 1.968 1.819 2.951 2.73l1.359-1.468-2.952-2.731zm8.854 8.202 2.949 2.74 1.362-1.464-2.95-2.742zm8.797 8.191c.975.911 1.949 1.821 2.922 2.733l1.367-1.46-2.923-2.734zm8.76 8.214 2.916 2.749 1.373-1.454c-.972-.918-1.945-1.835-2.918-2.751zm8.736 8.263c.969.921 1.937 1.843 2.905 2.766l1.38-1.447c-.968-.924-1.937-1.846-2.907-2.768zm8.7 8.317c.965.928 1.928 1.856 2.891 2.786l1.389-1.439c-.964-.931-1.928-1.86-2.893-2.788zm8.647 8.369c.956.932 1.912 1.866 2.866 2.8l1.399-1.429c-.955-.936-1.912-1.87-2.869-2.803zm8.577 8.422c.95.939 1.898 1.88 2.845 2.822l1.41-1.418c-.948-.943-1.897-1.885-2.848-2.826zm8.51 8.49c.941.947 1.881 1.896 2.819 2.846l1.423-1.405a1265.2 1265.2 0 0 0-2.824-2.851zm8.43 8.563c.931.956 1.862 1.913 2.79 2.872l1.437-1.391c-.93-.961-1.862-1.919-2.795-2.877zm8.341 8.644c.924.968 1.846 1.937 2.766 2.908l1.452-1.376a953.094 953.094 0 0 0-2.772-2.913zm8.263 8.751c.912.977 1.822 1.956 2.729 2.937l1.468-1.359c-.91-.982-1.821-1.963-2.735-2.942zm8.149 8.84c.899.987 1.796 1.976 2.69 2.967l1.485-1.34a950.256 950.256 0 0 0-2.696-2.973zm8.026 8.933c.884.998 1.766 1.998 2.645 3l1.503-1.32a837.215 837.215 0 0 0-2.651-3.006zm7.89 9.032c.87 1.011 1.738 2.023 2.603 3.038l1.522-1.297a837.824 837.824 0 0 0-2.609-3.046zm7.778 9.175c.856 1.027 1.71 2.055 2.561 3.086l1.542-1.273a825.211 825.211 0 0 0-2.568-3.095zm7.628 9.296a744.308 744.308 0 0 1 2.506 3.124l1.563-1.247a819.683 819.683 0 0 0-2.512-3.133zm7.458 9.411a667.45 667.45 0 0 1 2.446 3.163l1.586-1.218a623.735 623.735 0 0 0-2.453-3.173zm7.277 9.53a618.192 618.192 0 0 1 2.383 3.205l1.608-1.189a621.727 621.727 0 0 0-2.39-3.214zm7.099 9.678c.78 1.085 1.555 2.172 2.327 3.262l1.632-1.156a526.689 526.689 0 0 0-2.335-3.273zm6.911 9.831a566.7 566.7 0 0 1 2.256 3.307l1.656-1.121a524.798 524.798 0 0 0-2.264-3.319zm6.693 9.967a480.27 480.27 0 0 1 2.181 3.354l1.681-1.084a496.85 496.85 0 0 0-2.189-3.366zm6.465 10.109a518.102 518.102 0 0 1 2.102 3.401l1.705-1.045a496.676 496.676 0 0 0-2.11-3.414zm6.223 10.251a516.756 516.756 0 0 1 2.017 3.448l1.73-1.003c-.67-1.156-1.346-2.31-2.025-3.462zm5.966 10.395c.649 1.164 1.293 2.33 1.931 3.5l1.756-.959a460.826 460.826 0 0 0-1.94-3.514zm5.704 10.551a477.581 477.581 0 0 1 1.842 3.553l1.779-.912a429.912 429.912 0 0 0-1.849-3.569zm5.431 10.712c.587 1.2 1.17 2.402 1.747 3.607l1.804-.863a465.29 465.29 0 0 0-1.755-3.624zm5.145 10.878a454.647 454.647 0 0 1 1.632 3.624l1.827-.812a425.655 425.655 0 0 0-1.64-3.642zm4.793 10.918a411.408 411.408 0 0 1 1.53 3.676l1.85-.76a376.914 376.914 0 0 0-1.538-3.693zm4.49 11.085c.482 1.241.958 2.486 1.428 3.738l1.872-.709a403.123 403.123 0 0 0-1.436-3.753zm4.179 11.258c.447 1.26.887 2.53 1.322 3.8l1.892-.65c-.437-1.28-.88-2.55-1.329-3.81zm3.857 11.45c.41 1.28.814 2.56 1.212 3.85l1.911-.59c-.4-1.29-.806-2.58-1.218-3.87zm3.462 11.41c.362 1.27.719 2.53 1.07 3.81l1.928-.54c-.353-1.27-.711-2.55-1.076-3.82zm3.099 11.48c.326 1.28.646 2.57.96 3.86l1.943-.47c-.315-1.3-.636-2.59-.964-3.89zm2.765 11.66c.289 1.3.571 2.61.846 3.92l1.958-.41c-.277-1.32-.561-2.63-.851-3.95zm2.421 11.85c.25 1.32.493 2.66.729 3.99l1.969-.35a355.77 355.77 0 0 0-.732-4.01zm2.049 11.93c.2 1.28.393 2.57.581 3.86l1.979-.29c-.189-1.3-.383-2.59-.584-3.88zm1.631 11.64c.162 1.3.319 2.61.469 3.92l1.987-.23c-.151-1.32-.308-2.63-.472-3.94zm1.293 11.82c.124 1.32.242 2.65.354 3.98l1.993-.16c-.112-1.34-.231-2.68-.356-4.01zm.945 12.01c.086 1.35.165 2.7.237 4.05l1.997-.11c-.072-1.36-.152-2.71-.238-4.06zm.591 12.21c.045 1.36.084 2.73.116 4.11l1.999-.05c-.032-1.38-.071-2.76-.116-4.13zm.224 11.95c.006 1.29.005 2.58-.001 3.88l2 .01c.006-1.3.007-2.6.001-3.9zm-.112 11.71c-.03 1.31-.067 2.63-.11 3.95l1.999.06c.043-1.32.08-2.64.111-3.96zm-.442 11.89c-.067 1.33-.141 2.67-.221 4.01l1.996.12c.081-1.35.155-2.69.223-4.03zm-.778 12.07a464.85 464.85 0 0 1-.336 4.07l1.993.17c.118-1.36.231-2.72.337-4.08zm-1.123 12.26c-.144 1.37-.294 2.74-.451 4.12l1.987.23c.157-1.38.309-2.77.453-4.14zm-1.402 11.9a517.76 517.76 0 0 1-.515 3.82l1.981.27c.178-1.28.35-2.56.517-3.84zm-1.644 11.51c-.199 1.29-.404 2.58-.615 3.88l1.974.32c.212-1.3.417-2.6.618-3.89zm-1.947 11.68c-.234 1.31-.473 2.61-.718 3.93l1.967.36c.245-1.31.485-2.63.72-3.94zm-2.256 11.84a565.85 565.85 0 0 1-.822 3.98l1.957.41c.281-1.33.556-2.67.825-4zm-2.571 12a452.06 452.06 0 0 1-.928 4.04l1.948.46c.316-1.36.627-2.71.931-4.06zm-2.89 12.17c-.306 1.23-.616 2.46-.931 3.69l1.937.5c.317-1.24.628-2.47.935-3.7zm-2.88 11.11c-.335 1.24-.675 2.48-1.019 3.73l1.927.53c.346-1.25.687-2.5 1.023-3.74zm-3.147 11.24c-.364 1.25-.734 2.51-1.109 3.77l1.918.57c.375-1.26.746-2.53 1.112-3.79zm-3.418 11.38c-.394 1.27-.795 2.54-1.2 3.82l1.907.6c.406-1.28.807-2.56 1.204-3.83zm-3.692 11.52c-.426 1.29-.857 2.58-1.293 3.87l1.895.64c.438-1.3.87-2.59 1.297-3.88zm-3.972 11.66c-.457 1.31-.919 2.62-1.387 3.93l1.884.67c.469-1.32.932-2.63 1.39-3.93zm-4.255 11.82c-.453 1.22-.912 2.45-1.375 3.68l1.872.71c.464-1.24.924-2.47 1.379-3.7zm-4.093 10.81c-.462 1.19-.928 2.38-1.398 3.58l1.861.73c.471-1.2.939-2.4 1.401-3.59zm-4.271 10.78c-.488 1.2-.979 2.41-1.476 3.62l1.851.76 1.479-3.63zm-4.505 10.9c-.513 1.22-1.031 2.44-1.554 3.66l1.84.78c.523-1.22 1.042-2.44 1.557-3.67zm-4.741 11.02c-.54 1.23-1.084 2.47-1.633 3.7l1.828.81c.55-1.24 1.096-2.47 1.637-3.71zm-4.98 11.14c-.567 1.25-1.138 2.5-1.714 3.75l1.817.83c.577-1.25 1.149-2.5 1.717-3.75zm-5.222 11.27c-.594 1.26-1.192 2.52-1.795 3.79l1.805.86c.604-1.27 1.204-2.53 1.799-3.79zm-5.445 11.35c-.552 1.13-1.107 2.26-1.665 3.4l1.794.88c.56-1.13 1.116-2.27 1.668-3.4zm-5.061 10.22c-.574 1.15-1.15 2.29-1.731 3.43l1.784.91c.582-1.15 1.16-2.29 1.734-3.44zm-5.259 10.33c-.595 1.15-1.194 2.3-1.796 3.46l1.773.92c.604-1.15 1.204-2.31 1.8-3.47zm-5.457 10.42c-.617 1.16-1.239 2.33-1.864 3.5l1.764.94c.626-1.17 1.248-2.34 1.867-3.5zm-5.658 10.53c-.64 1.17-1.284 2.35-1.931 3.53l1.753.96c.648-1.18 1.293-2.36 1.934-3.54zm-5.861 10.63c-.663 1.18-1.329 2.37-2 3.56l1.743.98c.672-1.19 1.339-2.38 2.003-3.57zm-6.067 10.73c-.685 1.2-1.374 2.4-2.067 3.6l1.732 1c.694-1.21 1.385-2.41 2.071-3.61zm-6.273 10.83c-.708 1.21-1.421 2.43-2.137 3.64l1.723 1.02c.717-1.22 1.431-2.43 2.14-3.64zm-6.244 10.55c-.648 1.08-1.3 2.17-1.955 3.26l1.713 1.03c.656-1.09 1.309-2.18 1.958-3.26zm-5.92 9.79c-.667 1.1-1.337 2.19-2.01 3.29l1.704 1.04c.674-1.09 1.346-2.19 2.014-3.28zm-6.086 9.88c-.686 1.1-1.375 2.21-2.067 3.31l1.696 1.06c.692-1.1 1.382-2.21 2.069-3.31zm-6.256 9.96c-.704 1.11-1.412 2.23-2.122 3.34l1.686 1.08c.712-1.12 1.42-2.23 2.126-3.35zm-6.425 10.05c-.723 1.12-1.45 2.24-2.18 3.37l1.678 1.09 2.183-3.37zm-6.596 10.13c-.743 1.13-1.488 2.27-2.237 3.4l1.669 1.1c.75-1.13 1.496-2.27 2.24-3.4zm-6.769 10.22c-.762 1.14-1.527 2.29-2.295 3.43l1.66 1.12c.77-1.15 1.536-2.29 2.298-3.43zm-6.943 10.31-2.353 3.46 1.652 1.12c.789-1.15 1.574-2.3 2.356-3.45zm-7.117 10.4c-.801 1.16-1.605 2.32-2.412 3.48l1.643 1.14c.808-1.16 1.613-2.33 2.415-3.49zm-6.782 9.75c-.728 1.04-1.458 2.08-2.191 3.12l1.636 1.15c.733-1.04 1.464-2.08 2.193-3.12zm-6.619 9.38c-.743 1.05-1.489 2.1-2.238 3.15l1.628 1.16c.75-1.05 1.496-2.1 2.24-3.15zm-6.76 9.46c-.759 1.05-1.521 2.11-2.285 3.16l1.621 1.18c.765-1.06 1.527-2.12 2.287-3.17zm-6.903 9.52c-.774 1.06-1.552 2.13-2.332 3.19l1.613 1.18c.781-1.06 1.56-2.13 2.335-3.19zm-7.045 9.6c-.791 1.07-1.584 2.14-2.381 3.21l1.607 1.19c.797-1.07 1.591-2.14 2.382-3.21zm-7.19 9.67c-.807 1.07-1.616 2.15-2.428 3.23l1.599 1.21c.813-1.09 1.623-2.17 2.431-3.25zm-7.334 9.74c-.823 1.08-1.649 2.17-2.478 3.26l1.592 1.21c.829-1.09 1.656-2.18 2.48-3.27zm-7.481 9.81c-.839 1.09-1.681 2.19-2.526 3.29l1.584 1.22c.846-1.1 1.689-2.2 2.529-3.29zm-7.628 9.89c-.855 1.1-1.714 2.2-2.575 3.31l1.578 1.23c.862-1.11 1.721-2.21 2.577-3.32zm-7.775 9.96c-.437.55-.874 1.11-1.312 1.67l1.571 1.23c.439-.56.877-1.11 1.314-1.67zm.177-1662.005A1 1 0 1 0 225.47.483zm-1.696 1664.405c.065.55.563.94 1.111.88l8.937-1.07a1 1 0 0 0 .874-1.11 1.006 1.006 0 0 0-1.111-.88l-7.944.95-.948-7.94a1.007 1.007 0 0 0-1.112-.88c-.548.07-.94.57-.874 1.12zM223.95 1.99a1 1 0 0 0 1.409 1.42l-1.409-1.42m-4.609 7.42a1 1 0 0 0-1.415-1.413l1.415 1.413m-4.392 1.576a1 1 0 0 0 1.419 1.41l-1.419-1.41m-4.457 7.354a1 1 0 0 0-1.426-1.403l1.426 1.402m-4.332 1.558a1 1 0 1 0 1.429 1.4l-1.429-1.4m-4.307 7.288a1 1 0 1 0-1.436-1.392zm-4.273 1.542a1 1 0 0 0 1.44 1.389l-1.44-1.389m-4.156 7.222a1 1 0 0 0-1.447-1.38l1.447 1.38m-4.214 1.526a1 1 0 1 0 1.45 1.378l-1.45-1.377m-4.008 7.157a1 1 0 0 0-1.458-1.37zm-4.156 1.51a1 1 0 1 0 1.461 1.366l-1.461-1.365m-3.86 7.092a1 1 0 1 0-1.469-1.358l1.469 1.358m-4.099 1.496a1 1 0 1 0 1.473 1.353l-1.473-1.353m-3.713 7.026a1 1 0 1 0-1.479-1.346l1.479 1.346m-4.042 1.481a1 1 0 0 0 1.484 1.341l-1.484-1.34m-3.567 6.96a1 1 0 1 0-1.491-1.332l1.491 1.333m-4.04 1.53a1 1 0 1 0 1.496 1.328l-1.496-1.329m-4.142 7.718a1 1 0 0 0-1.505-1.318zm-4.284 1.865a1 1 0 1 0 1.508 1.313l-1.508-1.313m-3.955 7.635a.999.999 0 1 0-1.518-1.302l1.518 1.302m-4.211 1.848a1 1 0 0 0 1.523 1.297l-1.523-1.297m-3.767 7.551a1 1 0 0 0-1.532-1.286l1.532 1.286m-4.139 1.83a1.001 1.001 0 0 0 1.537 1.281zm-3.582 7.469a1 1 0 1 0-1.546-1.27zm-4.067 1.814a1 1 0 0 0 1.551 1.263zm-3.398 7.384a1 1 0 0 0-1.56-1.251zm-3.997 1.799a1 1 0 1 0 1.565 1.246zm-3.216 7.302a1 1 0 0 0-1.575-1.233zm-3.928 1.785a1 1 0 1 0 1.579 1.227zm-3.035 7.218a1 1 0 1 0-1.589-1.213zm-3.86 1.773a1 1 0 1 0 1.594 1.207zm-3.502 8.006a1 1 0 0 0-1.606-1.192zm-4.117 2.208a1 1 0 1 0 1.612 1.184l-1.612-1.184m-3.29 7.927a1 1 0 0 0-1.623-1.168l1.624 1.168m-4.026 2.191a1 1 0 1 0 1.63 1.159l-1.63-1.159m-3.058 7.819a1 1 0 0 0-1.641-1.143l1.641 1.143m-3.938 2.175a1 1 0 0 0 1.647 1.134l-1.647-1.134m-2.83 7.713a1 1 0 0 0-1.659-1.117l1.66 1.117m-3.85 2.161a1 1 0 0 0 1.665 1.108l-1.666-1.108m-2.603 7.605a1 1 0 1 0-1.678-1.088l1.678 1.088m-3.766 2.15a1 1 0 0 0 1.683 1.079l-1.683-1.079m-2.379 7.498a1 1 0 0 0-1.696-1.06l1.697 1.06m-3.682 2.14a1 1 0 0 0 1.702 1.05l-1.702-1.05m-2.595 8.123a1 1 0 0 0-1.717-1.027l1.717 1.027m-3.875 2.608a1 1 0 1 0 1.723 1.015l-1.723-1.015m-2.447 8.21a1 1 0 1 0-1.737-.99l1.737.99m-3.764 2.595a1 1 0 1 0 1.745.978zm-2.164 8.073a1 1 0 0 0-1.759-.952l1.76.952m-3.655 2.584a1 1 0 1 0 1.766.938l-1.766-.938m-1.885 7.935a1 1 0 0 0-1.78-.912l1.78.912m-3.548 2.576a1 1 0 0 0 1.787.898l-1.787-.898m-1.61 7.797a1 1 0 1 0-1.8-.868l1.8.868m-3.443 2.572a1 1 0 1 0 1.808.854l-1.808-.854m-1.458 7.924a1 1 0 1 0-1.823-.823l1.823.823m-3.55 3.053a1 1 0 0 0 1.83.805l-1.83-.805m-1.45 8.461a1 1 0 0 0-1.846-.77l1.846.77m-3.414 3.047a1 1 0 0 0 1.853.751l-1.853-.751m-1.112 8.287a1 1 0 0 0-1.868-.713l1.868.713m-3.28 3.045a1 1 0 1 0 1.876.694l-1.876-.694m-.78 8.114a1 1 0 0 0-1.89-.654zm-3.149 3.048a1 1 0 1 0 1.897.633l-1.897-.633m-.455 7.939a1 1 0 0 0-1.91-.592zm-3.018 3.055a.999.999 0 1 0 1.917.57l-1.917-.57m-.325 8.451a1 1 0 0 0-1.93-.524l1.93.524m-2.995 3.505a1 1 0 0 0 1.937.499l-1.937-.499m.004 8.439a1 1 0 1 0-1.949-.447l1.95.447m-2.831 3.515a1 1 0 1 0 1.955.422l-1.955-.422m.38 8.229a1 1 0 0 0-1.965-.369l1.965.369m-2.67 3.529a1 1 0 1 0 1.971.342l-1.97-.342m.747 8.02a1 1 0 1 0-1.979-.287l1.98.287m-2.509 3.548a1 1 0 0 0 1.983.26l-1.983-.26m1.063 8.191a1 1 0 1 0-1.99-.201l1.99.201M.94 364.701a1 1 0 0 0 1.993.17l-1.993-.17m1.428 8.271a1 1 0 1 0-1.997-.108l1.997.108m-2.184 3.939a1 1 0 0 0 1.999.076l-1.999-.076m1.82 8.037a1 1 0 0 0-2-.013l2 .013M.01 388.913a1 1 0 0 0 2-.019l-2 .019m2.197 7.808a1 1 0 1 0-1.998.082zm-1.806 3.994a1 1 0 1 0 1.996-.114l-1.996.114m2.59 7.927a1 1 0 1 0-1.993.18l1.992-.18m-1.592 4.23a1 1 0 1 0 1.989-.213l-1.99.213m2.977 7.754a1 1 0 0 0-1.98.279l1.98-.279m-1.385 4.261a1 1 0 0 0 1.976-.311l-1.976.311m3.344 7.523a1 1 0 1 0-1.964.377l1.964-.377m-1.18 4.294a1.001 1.001 0 0 0 1.958-.408l-1.958.408m3.694 7.3a1 1 0 1 0-1.944.471l1.944-.471m-.965 4.378a1 1 0 0 0 1.936-.502l-1.936.502m4.065 7.206a1 1 0 0 0-1.92.563l1.92-.563m-.757 4.417a1 1 0 1 0 1.91-.592l-1.91.592m4.392 6.998a1 1 0 0 0-1.891.65zm-.554 4.445a1 1 0 1 0 1.881-.678l-1.881.678m4.704 6.8a1 1 0 0 0-1.86.733l1.86-.733m-.356 4.472a1 1 0 1 0 1.85-.76l-1.85.76m4.977 6.559a1 1 0 0 0-1.828.811l1.828-.811m-.184 4.452a1 1 0 1 0 1.817-.835l-1.817.835m5.237 6.349a1 1 0 0 0-1.795.883l1.795-.883m0 4.475a1 1 0 0 0 1.784-.906l-1.783.906m5.498 6.187a1 1 0 1 0-1.76.949zm.18 4.495a1 1 0 1 0 1.749-.971l-1.75.971m5.745 6.035a1 1 0 0 0-1.726 1.011l1.726-1.011m.328 4.473a.999.999 0 1 0 1.715-1.03zm5.855 5.698a1 1 0 0 0-1.692 1.066zm.45 4.429a1 1 0 0 0 1.682-1.083l-1.681 1.083m6.066 5.573a1 1 0 1 0-1.66 1.117l1.66-1.117m.601 4.444a1 1 0 0 0 1.649-1.132l-1.649 1.132m6.264 5.458a1 1 0 1 0-1.628 1.162zm.746 4.456a1 1 0 0 0 1.617-1.176l-1.617 1.176m6.428 5.32a1 1 0 0 0-1.597 1.204l1.597-1.204m.795 4.353a1.001 1.001 0 0 0 1.588-1.216l-1.588 1.216m6.448 5.031a1 1 0 1 0-1.569 1.24l1.57-1.24m.917 4.362a1 1 0 0 0 1.56-1.251l-1.56 1.251m6.605 4.949a1 1 0 1 0-1.543 1.273l1.543-1.273m1.032 4.372a1 1 0 0 0 1.534-1.284l-1.534 1.284m6.752 4.873a1 1 0 1 0-1.518 1.303zm1.14 4.38a1 1 0 0 0 1.51-1.312l-1.51 1.312m6.819 4.725a1 1 0 1 0-1.495 1.329l1.495-1.329m1.145 4.282a1.001 1.001 0 0 0 1.488-1.338l-1.488 1.338m6.824 4.536a1 1 0 0 0-1.474 1.352zm1.234 4.289a1 1 0 1 0 1.467-1.359zm6.936 4.487a1 1 0 1 0-1.454 1.373zm1.318 4.296a.999.999 0 1 0 1.448-1.379zm7.04 4.444a1 1 0 1 0-1.437 1.391zm1.394 4.303a1 1 0 1 0 1.431-1.397zm7.065 4.333a1 1 0 0 0-1.421 1.407zm1.375 4.222a1 1 0 1 0 1.416-1.412zm7.048 4.201a1 1 0 0 0-1.408 1.421zm1.435 4.229a1 1 0 1 0 1.404-1.425zm7.125 4.178a1 1 0 1 0-1.395 1.433zm1.49 4.236a1 1 0 0 0 1.392-1.437zm7.195 4.16a1 1 0 1 0-1.385 1.442zm1.538 4.243a1.001 1.001 0 0 0 1.382-1.446zm7.22 4.112a.999.999 0 1 0-1.376 1.451zm1.511 4.184a.999.999 0 1 0 1.373-1.453zm7.171 4.008a1.001 1.001 0 0 0-1.369 1.458zm1.545 4.191a1 1 0 0 0 1.368-1.459zm7.218 4.006a1 1 0 0 0-1.363 1.464zm1.576 4.2a1 1 0 1 0 1.362-1.465zm7.258 4.009a1 1 0 0 0-1.36 1.467zm1.599 4.207a1 1 0 1 0 1.359-1.467zm7.292 4.018a1 1 0 1 0-1.357 1.469zm1.574 4.175a1 1 0 0 0 1.356-1.47zm7.222 3.941a1 1 0 1 0-1.356 1.47zm1.582 4.18a1 1 0 0 0 1.356-1.471zm7.243 3.958a1 1 0 0 0-1.357 1.47zm1.59 4.189a1 1 0 0 0 1.357-1.47zm7.256 3.98a1 1 0 0 0-1.358 1.469zm1.593 4.199a1 1 0 0 0 1.359-1.468zm7.264 4.006a1 1 0 0 0-1.361 1.466zm1.588 4.206a1 1 0 1 0 1.362-1.464zm7.214 3.99a1 1 0 0 0-1.366 1.461zm1.556 4.194a1 1 0 1 0 1.367-1.46zm7.209 4.025a1 1 0 0 0-1.371 1.456zm1.545 4.205a.999.999 0 1 0 1.373-1.454zm7.198 4.065a1 1 0 1 0-1.378 1.449zm1.527 4.215a1 1 0 1 0 1.38-1.447zm7.182 4.11a1 1 0 1 0-1.387 1.441zm1.504 4.227a1 1 0 0 0 1.389-1.439zm7.152 4.151a1 1 0 1 0-1.396 1.432zm1.47 4.232a1 1 0 1 0 1.399-1.429zm7.118 4.2a1 1 0 0 0-1.407 1.422zm1.438 4.244a1 1 0 1 0 1.41-1.418zm7.083 4.258a.999.999 0 1 0-1.418 1.41zm1.401 4.256a1 1 0 1 0 1.423-1.405zm7.043 4.321a1 1 0 1 0-1.432 1.396zm1.358 4.268a1 1 0 1 0 1.437-1.391zm6.997 4.391a.999.999 0 1 0-1.446 1.381zm1.32 4.289a1.001 1.001 0 0 0 1.452-1.376zm6.959 4.479a1 1 0 1 0-1.462 1.364zm1.267 4.301a1 1 0 0 0 1.468-1.359zm6.899 4.557a1 1 0 1 0-1.479 1.346zm1.211 4.313a1 1 0 0 0 1.485-1.34zm6.833 4.64a1 1 0 1 0-1.497 1.326zm1.148 4.326a1 1 0 0 0 1.503-1.32zm6.761 4.727a1 1 0 1 0-1.516 1.305zm1.087 4.343a.999.999 0 1 0 1.522-1.297zm6.71 4.855a1 1 0 1 0-1.535 1.282zm1.026 4.368a1 1 0 1 0 1.542-1.273zm6.624 4.954a1 1 0 0 0-1.557 1.256zm.949 4.38a1 1 0 1 0 1.563-1.247zm6.531 5.059a1 1 0 0 0-1.579 1.228zm.867 4.391a1 1 0 1 0 1.586-1.218zm6.432 5.169a1 1 0 0 0-1.601 1.198zm.782 4.403a1 1 0 1 0 1.608-1.189zm6.34 5.306a1 1 0 1 0-1.624 1.167zm.703 4.429a1 1 0 1 0 1.632-1.156zm6.232 5.436a1 1 0 1 0-1.648 1.133zm.608 4.44a1 1 0 1 0 1.656-1.121zm6.11 5.564a1 1 0 0 0-1.673 1.096zm.508 4.45a1 1 0 0 0 1.681-1.084zm5.981 5.697a1 1 0 1 0-1.697 1.058zm.405 4.459a1 1 0 1 0 1.705-1.045zm5.843 5.833a1 1 0 0 0-1.722 1.017zm.295 4.465a1 1 0 1 0 1.73-1.003zm5.696 5.974a1 1 0 1 0-1.747.973zm.184 4.473a1 1 0 1 0 1.756-.959zm5.545 6.123a1 1 0 0 0-1.772.928zm.07 4.481a1 1 0 1 0 1.779-.912zm5.385 6.279a1 1 0 1 0-1.796.88zm-.049 4.487a1 1 0 1 0 1.804-.863zm5.217 6.441a1 1 0 1 0-1.819.83zm-.187 4.454a1 1 0 1 0 1.827-.812zm5.003 6.517a1 1 0 1 0-1.842.777zm-.312 4.453a1 1 0 1 0 1.85-.76zm4.824 6.685a1 1 0 1 0-1.864.724zm-.436 4.462c.195.51.772.77 1.289.58.516-.2.777-.773.583-1.289zm4.636 6.86a.996.996 0 0 0-1.276-.61.992.992 0 0 0-.609 1.27zm-.563 4.46a1 1 0 0 0 1.892-.65zm4.44 7.04a.996.996 0 0 0-1.257-.65c-.526.17-.816.73-.648 1.26zm-.693 4.46c.163.53.723.83 1.251.66a.997.997 0 0 0 .66-1.25zm4.172 7.01a1.004 1.004 0 0 0-1.236-.69c-.531.16-.838.71-.686 1.24zm-.852 4.36c.146.53.697.84 1.229.69a.994.994 0 0 0 .699-1.23zm3.968 7.17a.999.999 0 0 0-1.215-.72c-.536.14-.859.68-.724 1.22zm-.979 4.36a1 1 0 1 0 1.943-.47zm3.758 7.36a1.005 1.005 0 0 0-1.192-.76c-.539.12-.88.66-.761 1.2zm-1.107 4.36a1 1 0 0 0 1.184.78c.541-.12.887-.65.774-1.19zm3.541 7.56a.998.998 0 0 0-1.168-.8c-.542.1-.9.62-.798 1.17zm-1.237 4.36a1 1 0 1 0 1.969-.35zm3.296 7.63a1.005 1.005 0 0 0-1.142-.84c-.546.09-.919.6-.834 1.15zm-1.395 4.17a1 1 0 0 0 1.979-.29zm3.034 7.53a.998.998 0 0 0-1.116-.87c-.548.07-.937.57-.868 1.12zm-1.515 4.17a1 1 0 0 0 1.107.88c.549-.07.943-.56.88-1.11zm2.815 7.71a1 1 0 0 0-1.991.19zm-1.637 4.17c.046.55.529.96 1.08.92.55-.05.959-.53.913-1.08zm2.587 7.91c-.035-.56-.51-.97-1.061-.94-.551.04-.97.51-.935 1.06zm-1.759 4.17c.03.55.501.97 1.052.94.552-.03.975-.5.945-1.05zm2.353 8.09a1.004 1.004 0 0 0-1.033-.97c-.552.02-.985.48-.966 1.04zm-1.883 4.18c.013.55.471.99 1.023.97a.997.997 0 0 0 .976-1.02zm2.108 7.83c-.002-.55-.452-1-1.004-1a.999.999 0 0 0-.996 1.01zm-2.001 3.89c-.003.55.443 1 .995 1.01.552 0 1.002-.45 1.005-1zm1.889 7.88a.998.998 0 0 0-.977-1.02.992.992 0 0 0-1.023.97zm-2.11 3.9a1 1 0 0 0 1.999.06zm1.666 8.04a1.003 1.003 0 0 0-.948-1.05c-.552-.02-1.022.4-1.05.95zm-2.219 3.91a.992.992 0 0 0 .938 1.05.99.99 0 0 0 1.058-.93zm1.437 8.22a1.01 1.01 0 0 0-.919-1.08 1.003 1.003 0 0 0-1.075.92zm-2.33 3.91a.998.998 0 0 0 .91 1.08 1 1 0 0 0 1.083-.91zm1.202 8.4a1.001 1.001 0 0 0-1.989-.21zm-2.44 3.91a1 1 0 1 0 1.987.23zm1.032 8.03a1.007 1.007 0 0 0-.862-1.12c-.548-.07-1.05.32-1.121.87zm-2.498 3.57a.994.994 0 0 0 .854 1.12.991.991 0 0 0 1.127-.85zm.848 8a.995.995 0 0 0-.836-1.14.997.997 0 0 0-1.141.83zm-2.592 3.57a.99.99 0 0 0 .826 1.14.998.998 0 0 0 1.148-.82zm.637 8.15a1.003 1.003 0 0 0-.809-1.16c-.543-.1-1.063.27-1.16.81zm-2.687 3.58a.995.995 0 0 0 .8 1.16.99.99 0 0 0 1.167-.8zm.422 8.3a.993.993 0 0 0-.782-1.17.999.999 0 0 0-1.178.78zm-2.782 3.59c-.114.54.232 1.07.773 1.19.54.11 1.071-.24 1.184-.78zm.202 8.46a.992.992 0 0 0-.755-1.19.997.997 0 0 0-1.196.75zm-2.879 3.6a.996.996 0 0 0 .747 1.2.998.998 0 0 0 1.201-.74zm-.021 8.62a1.01 1.01 0 0 0-.729-1.22c-.536-.13-1.079.2-1.212.73zm-2.872 3.2c-.137.54.186 1.08.721 1.22.535.13 1.079-.19 1.216-.72zm-.018 7.94a1 1 0 1 0-1.931-.52zm-2.95 3.21c-.147.53.165 1.08.697 1.23.532.14 1.083-.17 1.23-.7zm-.207 8.06a1.003 1.003 0 0 0-.682-1.24 1 1 0 0 0-1.239.69zm-3.03 3.22c-.157.53.145 1.09.674 1.25a1.01 1.01 0 0 0 1.244-.68zm-.398 8.2a.997.997 0 0 0-.659-1.25.995.995 0 0 0-1.252.66zm-3.111 3.23c-.167.53.125 1.09.651 1.26.527.16 1.089-.13 1.256-.66zm-.593 8.33a1.008 1.008 0 0 0-.636-1.27 1 1 0 0 0-1.263.64zm-3.192 3.24c-.177.52.105 1.09.628 1.27.523.17 1.091-.11 1.267-.63zm-.792 8.46a1 1 0 1 0-1.887-.67zm-3.274 3.26a.99.99 0 0 0 .606 1.27.994.994 0 0 0 1.278-.6zm-.992 8.58a.993.993 0 0 0-.591-1.28.991.991 0 0 0-1.285.59zm-3.251 2.99a1 1 0 0 0 .584 1.29.999.999 0 0 0 1.288-.58zm-.854 7.85a.999.999 0 1 0-1.864-.72zm-3.262 2.86a.993.993 0 0 0 .564 1.29c.514.2 1.095-.05 1.297-.56zm-1.019 7.95c.207-.52-.04-1.1-.552-1.31-.512-.2-1.095.04-1.302.56zm-3.33 2.87a.996.996 0 0 0 .546 1.3.998.998 0 0 0 1.305-.54zm-1.186 8.05c.215-.5-.024-1.09-.533-1.31a1.006 1.006 0 0 0-1.31.54zm-3.397 2.89a.998.998 0 0 0 .527 1.31.998.998 0 0 0 1.313-.53zm-1.355 8.16a.993.993 0 0 0-.514-1.31.989.989 0 0 0-1.318.51zm-3.465 2.9a.997.997 0 0 0 .508 1.32.992.992 0 0 0 1.32-.51zm-1.527 8.27a.996.996 0 0 0-.495-1.32 1 1 0 0 0-1.325.49zm-3.534 2.92a.993.993 0 0 0 .49 1.32.986.986 0 0 0 1.327-.49zm-1.699 8.38a.998.998 0 0 0-.478-1.33.992.992 0 0 0-1.331.47zm-3.604 2.93a.996.996 0 0 0 .472 1.33.996.996 0 0 0 1.333-.47zm-1.853 8.44c.243-.5.036-1.1-.46-1.34a1.007 1.007 0 0 0-1.337.46zm-3.462 2.52c-.244.49-.041 1.09.455 1.34.495.24 1.095.04 1.339-.46zm-1.609 7.72a.998.998 0 0 0-.445-1.34 1 1 0 0 0-1.342.44zm-3.518 2.53c-.25.5-.053 1.1.44 1.35.492.25 1.094.05 1.344-.44zm-1.751 7.81a.99.99 0 0 0-.429-1.34.996.996 0 0 0-1.348.43zm-3.573 2.55c-.256.49-.066 1.09.424 1.35.49.25 1.094.06 1.349-.43zm-1.894 7.9a.995.995 0 0 0-.415-1.35.995.995 0 0 0-1.352.41zm-3.631 2.56a.998.998 0 0 0 .41 1.35.999.999 0 0 0 1.354-.41zm-2.038 7.98a.993.993 0 0 0-.4-1.35.99.99 0 0 0-1.356.4zm-3.687 2.58c-.266.48-.089 1.09.395 1.36a1.01 1.01 0 0 0 1.358-.4zm-2.184 8.07a1 1 0 0 0-.386-1.36.993.993 0 0 0-1.36.39zm-3.746 2.59a.998.998 0 0 0 .381 1.36c.482.27 1.091.1 1.362-.38zm-2.331 8.16a.993.993 0 0 0-.371-1.36.995.995 0 0 0-1.365.37zm-3.803 2.61a.992.992 0 0 0 .366 1.36.993.993 0 0 0 1.366-.36zm-2.48 8.25a1.002 1.002 0 0 0-1.726-1.02zm-3.863 2.62a1 1 0 0 0 .353 1.37c.476.28 1.089.12 1.37-.35zm-2.391 7.94a.995.995 0 0 0-.344-1.37.997.997 0 0 0-1.372.34zm-3.671 2.23a.999.999 0 0 0 1.713 1.03zm-2.257 7.58c.287-.48.138-1.09-.333-1.38a1 1 0 0 0-1.375.33zm-3.718 2.24a.994.994 0 0 0 .329 1.37 1 1 0 0 0 1.375-.33zm-2.378 7.65a1 1 0 1 0-1.698-1.06zm-3.765 2.25a1.001 1.001 0 1 0 1.696 1.06zm-2.499 7.72c.295-.46.157-1.08-.31-1.38a1.011 1.011 0 0 0-1.38.31zm-3.812 2.27a.996.996 0 0 0 .305 1.38c.466.3 1.084.16 1.381-.3zm-2.622 7.8c.299-.47.166-1.09-.298-1.39a1.004 1.004 0 0 0-1.383.3zm-3.861 2.28a.998.998 0 0 0 .295 1.38c.463.3 1.082.17 1.383-.29zm-2.744 7.86a.995.995 0 0 0-.287-1.38.994.994 0 0 0-1.385.28zm-3.909 2.3c-.304.46-.178 1.08.283 1.39.461.3 1.081.17 1.386-.29zm-2.869 7.94c.307-.46.183-1.08-.276-1.39a1.004 1.004 0 0 0-1.387.27zm-3.958 2.31c-.308.46-.186 1.08.273 1.39.458.31 1.08.18 1.387-.27zm-2.993 8.01c.31-.46.191-1.08-.265-1.39a.997.997 0 0 0-1.39.26zm-4.008 2.33c-.311.45-.194 1.08.262 1.39a1 1 0 0 0 1.39-.27zm-3.118 8.07a1 1 0 1 0-1.646-1.13zm-4.058 2.35a.997.997 0 0 0 .251 1.39.99.99 0 0 0 1.392-.25zm-2.732 7.42a1.01 1.01 0 0 0-.246-1.4 1.008 1.008 0 0 0-1.392.25zm-3.829 1.97a.995.995 0 0 0 .242 1.39 1 1 0 0 0 1.394-.24zm-2.798 7.42a.995.995 0 0 0-.236-1.39.998.998 0 0 0-1.394.23zm-3.868 1.99a1 1 0 0 0 1.628 1.16zm-2.899 7.48c.323-.45.221-1.08-.227-1.4a1.001 1.001 0 0 0-1.396.23zm-3.908 1.99c-.324.45-.223 1.08.224 1.4a1.01 1.01 0 0 0 1.397-.22zm-3.002 7.54c.326-.45.228-1.07-.218-1.4a1.012 1.012 0 0 0-1.398.22zm-3.948 2.01c-.326.45-.23 1.07.216 1.4a.993.993 0 0 0 1.397-.22zm-3.105 7.6a1 1 0 0 0-.21-1.4.993.993 0 0 0-1.398.21zm-3.989 2.02a1 1 0 1 0 1.607 1.19zm-3.207 7.65c.33-.44.24-1.06-.202-1.4a.996.996 0 0 0-1.4.21zm-4.03 2.04c-.332.45-.243 1.07.198 1.41.442.33 1.069.24 1.401-.2zm-3.312 7.71a1 1 0 0 0-.193-1.4 1.004 1.004 0 0 0-1.401.2zm-4.072 2.06a.998.998 0 0 0 .191 1.4.994.994 0 0 0 1.401-.19zm-3.416 7.77a1.01 1.01 0 0 0-.185-1.41 1.005 1.005 0 0 0-1.402.19zm-4.113 2.07a.998.998 0 0 0 .182 1.4c.438.34 1.066.25 1.402-.18zm-3.522 7.82a.996.996 0 0 0-.177-1.4.996.996 0 0 0-1.403.18zm-4.155 2.09a.996.996 0 0 0 .174 1.4c.436.34 1.064.26 1.404-.17zm-3.627 7.88a.996.996 0 0 0-.169-1.4.996.996 0 0 0-1.404.17zM225.471.483l-1.521 1.508 1.409 1.42 1.519-1.506-1.407-1.422m-7.545 7.514c-.996.998-1.989 1.994-2.977 2.99l1.419 1.409c.987-.994 1.978-1.99 2.973-2.986l-1.415-1.413m-8.86 8.94c-.973.989-1.942 1.976-2.906 2.961l1.429 1.4c.964-.985 1.931-1.971 2.903-2.958l-1.426-1.403m-8.649 8.857c-.949.98-1.895 1.958-2.837 2.934l1.44 1.389c.941-.976 1.885-1.953 2.833-2.931l-1.436-1.392m-8.44 8.775c-.926.971-1.849 1.94-2.767 2.907l1.45 1.378c.917-.967 1.839-1.934 2.764-2.904l-1.447-1.38m-8.233 8.695c-.903.961-1.803 1.921-2.698 2.88l1.461 1.365c.895-.957 1.793-1.916 2.695-2.876l-1.458-1.37m-8.027 8.613c-.88.953-1.757 1.904-2.63 2.854l1.473 1.353a1300.1 1300.1 0 0 1 2.626-2.85l-1.469-1.357m-7.822 8.534c-.858.944-1.713 1.886-2.563 2.827l1.484 1.341c.849-.94 1.702-1.88 2.558-2.822l-1.479-1.346m-7.621 8.455c-.853.955-1.703 1.91-2.549 2.861l1.496 1.328c.844-.95 1.692-1.903 2.544-2.856l-1.491-1.333m-8.196 9.262a1214.03 1214.03 0 0 0-2.779 3.183l1.508 1.313a1431.31 1431.31 0 0 1 2.776-3.178zm-8.252 9.516c-.902 1.052-1.8 2.102-2.693 3.15l1.523 1.297c.891-1.047 1.787-2.095 2.688-3.145l-1.518-1.302m-7.992 9.415c-.873 1.04-1.742 2.08-2.607 3.116l1.537 1.281c.862-1.035 1.73-2.072 2.602-3.11l-1.532-1.287m-7.735 9.315c-.845 1.03-1.685 2.058-2.521 3.084l1.551 1.263c.834-1.024 1.673-2.05 2.516-3.077zm-7.479 9.217a955.78 955.78 0 0 0-2.437 3.05l1.565 1.246a952.005 952.005 0 0 1 2.432-3.045zm-7.228 9.119c-.789 1.008-1.573 2.014-2.353 3.018l1.579 1.227c.779-1.002 1.561-2.006 2.349-3.012zm-6.977 9.023c-.762.997-1.519 1.992-2.271 2.986l1.594 1.207c.751-.991 1.506-1.985 2.266-2.98zm-7.38 9.8a890.818 890.818 0 0 0-2.51 3.4l1.612 1.184a836.502 836.502 0 0 1 2.505-3.392l-1.606-1.192m-7.423 10.159a773.42 773.42 0 0 0-2.403 3.359l1.63 1.159a835.72 835.72 0 0 1 2.397-3.35l-1.624-1.168m-7.102 10.035a863.352 863.352 0 0 0-2.297 3.318l1.647 1.134a735.319 735.319 0 0 1 2.291-3.309l-1.641-1.143m-6.786 9.914a755.222 755.222 0 0 0-2.192 3.278l1.666 1.108a646.353 646.353 0 0 1 2.186-3.269l-1.66-1.117m-6.472 9.795a720.312 720.312 0 0 0-2.088 3.238l1.683 1.079c.689-1.074 1.383-2.15 2.083-3.229zm-6.163 9.676a678.911 678.911 0 0 0-1.986 3.2l1.702 1.05a620.189 620.189 0 0 1 1.98-3.19l-1.696-1.06m-6.297 10.296a585.606 585.606 0 0 0-2.159 3.635l1.723 1.015c.71-1.205 1.427-2.413 2.152-3.623l-1.717-1.027m-6.343 10.855a530.596 530.596 0 0 0-2.027 3.585l1.745.978a580.569 580.569 0 0 1 2.02-3.573l-1.738-.99m-5.95 10.706a537.923 537.923 0 0 0-1.896 3.536l1.766.938a545.324 545.324 0 0 1 1.89-3.522l-1.76-.952m-5.56 10.559a512.261 512.261 0 0 0-1.77 3.488l1.788.898a473.52 473.52 0 0 1 1.761-3.474l-1.78-.912m-5.18 10.417a466.215 466.215 0 0 0-1.642 3.44l1.808.854a482.358 482.358 0 0 1 1.636-3.426l-1.802-.868m-4.923 10.541a434.505 434.505 0 0 0-1.727 3.876l1.83.805a430.516 430.516 0 0 1 1.72-3.858l-1.823-.823m-5.023 11.567a416.81 416.81 0 0 0-1.568 3.817l1.853.751a404.184 404.184 0 0 1 1.561-3.798l-1.846-.77m-4.548 11.391a393.88 393.88 0 0 0-1.412 3.758l1.876.694c.46-1.243.928-2.489 1.404-3.739l-1.868-.713m-4.082 11.218a359.796 359.796 0 0 0-1.259 3.702l1.897.633a358.15 358.15 0 0 1 1.252-3.681l-1.89-.654m-3.624 11.049a342.5 342.5 0 0 0-1.108 3.647l1.917.57c.358-1.205.726-2.413 1.101-3.625l-1.91-.592m-3.363 11.574c-.365 1.347-.72 2.69-1.065 4.029l1.937.499a325.8 325.8 0 0 1 1.058-4.004l-1.93-.524m-3.01 12.021a304.594 304.594 0 0 0-.882 3.962l1.955.422c.282-1.309.574-2.621.876-3.937l-1.949-.447m-2.467 11.822a290.32 290.32 0 0 0-.704 3.898l1.97.342c.224-1.287.457-2.577.7-3.871l-1.966-.369m-1.937 11.631c-.186 1.281-.363 2.56-.53 3.835l1.983.26c.166-1.266.341-2.535.526-3.808l-1.979-.287m-1.457 11.825c-.14 1.376-.267 2.749-.384 4.117l1.993.17c.116-1.358.243-2.72.38-4.086l-1.99-.201m-.953 12.28a257.61 257.61 0 0 0-.187 4.047l1.999.076c.05-1.335.112-2.673.185-4.015l-1.997-.108Zm-.367 12.071c-.008 1.33-.006 2.656.006 3.978l2-.019a248.69 248.69 0 0 1-.006-3.946l-2-.013Zm.205 11.868c.053 1.308.117 2.612.192 3.912l1.996-.114a244.32 244.32 0 0 1-.19-3.88l-1.998.082ZM1 408.822c.122 1.354.255 2.704.4 4.05l1.989-.213a241.704 241.704 0 0 1-.398-4.017l-1.992.18m1.397 12.083c.188 1.331.386 2.659.595 3.982l1.976-.311c-.208-1.313-.404-2.63-.59-3.95l-1.981.279m1.975 11.882c.251 1.309.512 2.615.784 3.917l1.958-.408c-.27-1.292-.529-2.587-.778-3.886l-1.964.377m2.534 11.688c.316 1.305.642 2.608.979 3.907l1.936-.502a251.999 251.999 0 0 1-.971-3.876zm3.124 11.676a258.67 258.67 0 0 0 1.163 3.854l1.91-.592a259.565 259.565 0 0 1-1.153-3.825zm3.664 11.502a263.45 263.45 0 0 0 1.337 3.795l1.881-.678a268.279 268.279 0 0 1-1.327-3.767l-1.891.65m4.18 11.328c.493 1.25.994 2.496 1.505 3.739l1.85-.76a280.448 280.448 0 0 1-1.494-3.712l-1.86.733m4.654 11.109a294.72 294.72 0 0 0 1.644 3.641l1.817-.835a297.616 297.616 0 0 1-1.633-3.617zm5.086 10.873c.59 1.2 1.189 2.397 1.796 3.592l1.783-.906a304.28 304.28 0 0 1-1.784-3.569l-1.795.883m5.533 10.728a336.716 336.716 0 0 0 1.94 3.546l1.749-.971a332.61 332.61 0 0 1-1.929-3.524zm5.96 10.592c.676 1.156 1.361 2.31 2.053 3.462l1.715-1.03a351.627 351.627 0 0 1-2.043-3.443l-1.726 1.011m6.216 10.226a391.622 391.622 0 0 0 2.143 3.363l1.681-1.083a401.074 401.074 0 0 1-2.132-3.346zm6.548 10.053c.747 1.11 1.501 2.219 2.261 3.327l1.649-1.132a413.744 413.744 0 0 1-2.25-3.312zm6.897 9.947c.785 1.1 1.577 2.198 2.374 3.294l1.617-1.176a470.826 470.826 0 0 1-2.363-3.28zm7.204 9.818a500.54 500.54 0 0 0 2.393 3.149l1.588-1.216a496.64 496.64 0 0 1-2.383-3.137l-1.597 1.204m7.272 9.42a543.433 543.433 0 0 0 2.486 3.122l1.56-1.251a571.415 571.415 0 0 1-2.477-3.111l-1.569 1.24m7.548 9.344a630.292 630.292 0 0 0 2.575 3.099l1.534-1.284a620.435 620.435 0 0 1-2.566-3.088l-1.543 1.273m7.81 9.275a633.798 633.798 0 0 0 2.658 3.077l1.51-1.312a624.604 624.604 0 0 1-2.651-3.068l-1.518 1.303m7.981 9.131a788.76 788.76 0 0 0 2.64 2.953l1.488-1.338a691.61 691.61 0 0 1-2.633-2.944l-1.495 1.329m7.99 8.841c.899.98 1.802 1.959 2.708 2.937l1.467-1.359a806.947 806.947 0 0 1-2.701-2.93zm8.19 8.797c.92.975 1.844 1.949 2.772 2.923l1.448-1.379c-.925-.972-1.847-1.944-2.766-2.917zm8.375 8.758c.941.971 1.884 1.942 2.831 2.912l1.431-1.397c-.945-.968-1.886-1.937-2.825-2.906zm8.475 8.652c.929.939 1.861 1.877 2.796 2.815l1.416-1.412c-.933-.936-1.863-1.873-2.791-2.81zm8.436 8.437c.946.936 1.893 1.872 2.843 2.808l1.404-1.425c-.949-.934-1.895-1.869-2.839-2.804zm8.573 8.419c.959.934 1.921 1.869 2.885 2.803l1.392-1.437c-.963-.933-1.924-1.866-2.882-2.799zm8.695 8.405c.972.934 1.946 1.867 2.923 2.801l1.382-1.446c-.976-.932-1.949-1.865-2.92-2.797zm8.767 8.364c.961.911 1.923 1.822 2.887 2.733l1.373-1.453-2.884-2.731zm8.689 8.199c.97.911 1.941 1.822 2.914 2.733l1.368-1.459c-.973-.911-1.944-1.822-2.913-2.732zm8.769 8.203 2.939 2.736 1.362-1.465c-.981-.912-1.96-1.823-2.938-2.735zm8.837 8.212 2.959 2.74 1.359-1.467-2.958-2.74zm8.894 8.227 2.931 2.706 1.356-1.47-2.93-2.705zm8.797 8.117 2.938 2.71 1.356-1.471-2.938-2.709zm8.824 8.138 2.947 2.719 1.357-1.47-2.947-2.719zm8.845 8.168c.984.909 1.968 1.819 2.951 2.73l1.359-1.468-2.952-2.731zm8.854 8.202 2.949 2.74 1.362-1.464-2.95-2.742zm8.797 8.191c.975.911 1.949 1.821 2.922 2.733l1.367-1.46-2.923-2.734zm8.76 8.214 2.916 2.749 1.373-1.454c-.972-.918-1.945-1.835-2.918-2.751zm8.736 8.263c.969.921 1.937 1.843 2.905 2.766l1.38-1.447c-.968-.924-1.937-1.846-2.907-2.768zm8.7 8.317c.965.928 1.928 1.856 2.891 2.786l1.389-1.439c-.964-.931-1.928-1.86-2.893-2.788zm8.647 8.369c.956.932 1.912 1.866 2.866 2.8l1.399-1.429c-.955-.936-1.912-1.87-2.869-2.803zm8.577 8.422c.95.939 1.898 1.88 2.845 2.822l1.41-1.418c-.948-.943-1.897-1.885-2.848-2.826zm8.51 8.49c.941.947 1.881 1.896 2.819 2.846l1.423-1.405a1265.2 1265.2 0 0 0-2.824-2.851zm8.43 8.563c.931.956 1.862 1.913 2.79 2.872l1.437-1.391c-.93-.961-1.862-1.919-2.795-2.877zm8.341 8.644c.924.968 1.846 1.937 2.766 2.908l1.452-1.376a953.094 953.094 0 0 0-2.772-2.913zm8.263 8.751c.912.977 1.822 1.956 2.729 2.937l1.468-1.359c-.91-.982-1.821-1.963-2.735-2.942zm8.149 8.84c.899.987 1.796 1.976 2.69 2.967l1.485-1.34a950.256 950.256 0 0 0-2.696-2.973zm8.026 8.933c.884.998 1.766 1.998 2.645 3l1.503-1.32a837.215 837.215 0 0 0-2.651-3.006zm7.89 9.032c.87 1.011 1.738 2.023 2.603 3.038l1.522-1.297a837.824 837.824 0 0 0-2.609-3.046zm7.778 9.175c.856 1.027 1.71 2.055 2.561 3.086l1.542-1.273a825.211 825.211 0 0 0-2.568-3.095zm7.628 9.296a744.308 744.308 0 0 1 2.506 3.124l1.563-1.247a819.683 819.683 0 0 0-2.512-3.133zm7.458 9.411a667.45 667.45 0 0 1 2.446 3.163l1.586-1.218a623.735 623.735 0 0 0-2.453-3.173zm7.277 9.53a618.192 618.192 0 0 1 2.383 3.205l1.608-1.189a621.727 621.727 0 0 0-2.39-3.214zm7.099 9.678c.78 1.085 1.555 2.172 2.327 3.262l1.632-1.156a526.689 526.689 0 0 0-2.335-3.273zm6.911 9.831a566.7 566.7 0 0 1 2.256 3.307l1.656-1.121a524.798 524.798 0 0 0-2.264-3.319zm6.693 9.967a480.27 480.27 0 0 1 2.181 3.354l1.681-1.084a496.85 496.85 0 0 0-2.189-3.366zm6.465 10.109a518.102 518.102 0 0 1 2.102 3.401l1.705-1.045a496.676 496.676 0 0 0-2.11-3.414zm6.223 10.251a516.756 516.756 0 0 1 2.017 3.448l1.73-1.003c-.67-1.156-1.346-2.31-2.025-3.462zm5.966 10.395c.649 1.164 1.293 2.33 1.931 3.5l1.756-.959a460.826 460.826 0 0 0-1.94-3.514zm5.704 10.551a477.581 477.581 0 0 1 1.842 3.553l1.779-.912a429.912 429.912 0 0 0-1.849-3.569zm5.431 10.712c.587 1.2 1.17 2.402 1.747 3.607l1.804-.863a465.29 465.29 0 0 0-1.755-3.624zm5.145 10.878a454.647 454.647 0 0 1 1.632 3.624l1.827-.812a425.655 425.655 0 0 0-1.64-3.642zm4.793 10.918a411.408 411.408 0 0 1 1.53 3.676l1.85-.76a376.914 376.914 0 0 0-1.538-3.693zm4.49 11.085c.482 1.241.958 2.486 1.428 3.738l1.872-.709a403.123 403.123 0 0 0-1.436-3.753zm4.179 11.258c.447 1.26.887 2.53 1.322 3.8l1.892-.65c-.437-1.28-.88-2.55-1.329-3.81zm3.857 11.45c.41 1.28.814 2.56 1.212 3.85l1.911-.59c-.4-1.29-.806-2.58-1.218-3.87zm3.462 11.41c.362 1.27.719 2.53 1.07 3.81l1.928-.54c-.353-1.27-.711-2.55-1.076-3.82zm3.099 11.48c.326 1.28.646 2.57.96 3.86l1.943-.47c-.315-1.3-.636-2.59-.964-3.89zm2.765 11.66c.289 1.3.571 2.61.846 3.92l1.958-.41c-.277-1.32-.561-2.63-.851-3.95zm2.421 11.85c.25 1.32.493 2.66.729 3.99l1.969-.35a355.77 355.77 0 0 0-.732-4.01zm2.049 11.93c.2 1.28.393 2.57.581 3.86l1.979-.29c-.189-1.3-.383-2.59-.584-3.88zm1.631 11.64c.162 1.3.319 2.61.469 3.92l1.987-.23c-.151-1.32-.308-2.63-.472-3.94zm1.293 11.82c.124 1.32.242 2.65.354 3.98l1.993-.16c-.112-1.34-.231-2.68-.356-4.01zm.945 12.01c.086 1.35.165 2.7.237 4.05l1.997-.11c-.072-1.36-.152-2.71-.238-4.06zm.591 12.21c.045 1.36.084 2.73.116 4.11l1.999-.05c-.032-1.38-.071-2.76-.116-4.13zm.224 11.95c.006 1.29.005 2.58-.001 3.88l2 .01c.006-1.3.007-2.6.001-3.9zm-.112 11.71c-.03 1.31-.067 2.63-.11 3.95l1.999.06c.043-1.32.08-2.64.111-3.96zm-.442 11.89c-.067 1.33-.141 2.67-.221 4.01l1.996.12c.081-1.35.155-2.69.223-4.03zm-.778 12.07a464.85 464.85 0 0 1-.336 4.07l1.993.17c.118-1.36.231-2.72.337-4.08zm-1.123 12.26c-.144 1.37-.294 2.74-.451 4.12l1.987.23c.157-1.38.309-2.77.453-4.14zm-1.402 11.9a517.76 517.76 0 0 1-.515 3.82l1.981.27c.178-1.28.35-2.56.517-3.84zm-1.644 11.51c-.199 1.29-.404 2.58-.615 3.88l1.974.32c.212-1.3.417-2.6.618-3.89zm-1.947 11.68c-.234 1.31-.473 2.61-.718 3.93l1.967.36c.245-1.31.485-2.63.72-3.94zm-2.256 11.84a565.85 565.85 0 0 1-.822 3.98l1.957.41c.281-1.33.556-2.67.825-4zm-2.571 12a452.06 452.06 0 0 1-.928 4.04l1.948.46c.316-1.36.627-2.71.931-4.06zm-2.89 12.17c-.306 1.23-.616 2.46-.931 3.69l1.937.5c.317-1.24.628-2.47.935-3.7zm-2.88 11.11c-.335 1.24-.675 2.48-1.019 3.73l1.927.53c.346-1.25.687-2.5 1.023-3.74zm-3.147 11.24c-.364 1.25-.734 2.51-1.109 3.77l1.918.57c.375-1.26.746-2.53 1.112-3.79zm-3.418 11.38c-.394 1.27-.795 2.54-1.2 3.82l1.907.6c.406-1.28.807-2.56 1.204-3.83zm-3.692 11.52c-.426 1.29-.857 2.58-1.293 3.87l1.895.64c.438-1.3.87-2.59 1.297-3.88zm-3.972 11.66c-.457 1.31-.919 2.62-1.387 3.93l1.884.67c.469-1.32.932-2.63 1.39-3.93zm-4.255 11.82c-.453 1.22-.912 2.45-1.375 3.68l1.872.71c.464-1.24.924-2.47 1.379-3.7zm-4.093 10.81c-.462 1.19-.928 2.38-1.398 3.58l1.861.73c.471-1.2.939-2.4 1.401-3.59zm-4.271 10.78c-.488 1.2-.979 2.41-1.476 3.62l1.851.76 1.479-3.63zm-4.505 10.9c-.513 1.22-1.031 2.44-1.554 3.66l1.84.78c.523-1.22 1.042-2.44 1.557-3.67zm-4.741 11.02c-.54 1.23-1.084 2.47-1.633 3.7l1.828.81c.55-1.24 1.096-2.47 1.637-3.71zm-4.98 11.14c-.567 1.25-1.138 2.5-1.714 3.75l1.817.83c.577-1.25 1.149-2.5 1.717-3.75zm-5.222 11.27c-.594 1.26-1.192 2.52-1.795 3.79l1.805.86c.604-1.27 1.204-2.53 1.799-3.79zm-5.445 11.35c-.552 1.13-1.107 2.26-1.665 3.4l1.794.88c.56-1.13 1.116-2.27 1.668-3.4zm-5.061 10.22c-.574 1.15-1.15 2.29-1.731 3.43l1.784.91c.582-1.15 1.16-2.29 1.734-3.44zm-5.259 10.33c-.595 1.15-1.194 2.3-1.796 3.46l1.773.92c.604-1.15 1.204-2.31 1.8-3.47zm-5.457 10.42c-.617 1.16-1.239 2.33-1.864 3.5l1.764.94c.626-1.17 1.248-2.34 1.867-3.5zm-5.658 10.53c-.64 1.17-1.284 2.35-1.931 3.53l1.753.96c.648-1.18 1.293-2.36 1.934-3.54zm-5.861 10.63c-.663 1.18-1.329 2.37-2 3.56l1.743.98c.672-1.19 1.339-2.38 2.003-3.57zm-6.067 10.73c-.685 1.2-1.374 2.4-2.067 3.6l1.732 1c.694-1.21 1.385-2.41 2.071-3.61zm-6.273 10.83c-.708 1.21-1.421 2.43-2.137 3.64l1.723 1.02c.717-1.22 1.431-2.43 2.14-3.64zm-6.244 10.55c-.648 1.08-1.3 2.17-1.955 3.26l1.713 1.03c.656-1.09 1.309-2.18 1.958-3.26zm-5.92 9.79c-.667 1.1-1.337 2.19-2.01 3.29l1.704 1.04c.674-1.09 1.346-2.19 2.014-3.28zm-6.086 9.88c-.686 1.1-1.375 2.21-2.067 3.31l1.696 1.06c.692-1.1 1.382-2.21 2.069-3.31zm-6.256 9.96c-.704 1.11-1.412 2.23-2.122 3.34l1.686 1.08c.712-1.12 1.42-2.23 2.126-3.35zm-6.425 10.05c-.723 1.12-1.45 2.24-2.18 3.37l1.678 1.09 2.183-3.37zm-6.596 10.13c-.743 1.13-1.488 2.27-2.237 3.4l1.669 1.1c.75-1.13 1.496-2.27 2.24-3.4zm-6.769 10.22c-.762 1.14-1.527 2.29-2.295 3.43l1.66 1.12c.77-1.15 1.536-2.29 2.298-3.43zm-6.943 10.31-2.353 3.46 1.652 1.12c.789-1.15 1.574-2.3 2.356-3.45zm-7.117 10.4c-.801 1.16-1.605 2.32-2.412 3.48l1.643 1.14c.808-1.16 1.613-2.33 2.415-3.49zm-6.782 9.75c-.728 1.04-1.458 2.08-2.191 3.12l1.636 1.15c.733-1.04 1.464-2.08 2.193-3.12zm-6.619 9.38c-.743 1.05-1.489 2.1-2.238 3.15l1.628 1.16c.75-1.05 1.496-2.1 2.24-3.15zm-6.76 9.46c-.759 1.05-1.521 2.11-2.285 3.16l1.621 1.18c.765-1.06 1.527-2.12 2.287-3.17zm-6.903 9.52c-.774 1.06-1.552 2.13-2.332 3.19l1.613 1.18c.781-1.06 1.56-2.13 2.335-3.19zm-7.045 9.6c-.791 1.07-1.584 2.14-2.381 3.21l1.607 1.19c.797-1.07 1.591-2.14 2.382-3.21zm-7.19 9.67c-.807 1.07-1.616 2.15-2.428 3.23l1.599 1.21c.813-1.09 1.623-2.17 2.431-3.25zm-7.334 9.74c-.823 1.08-1.649 2.17-2.478 3.26l1.592 1.21c.829-1.09 1.656-2.18 2.48-3.27zm-7.481 9.81c-.839 1.09-1.681 2.19-2.526 3.29l1.584 1.22c.846-1.1 1.689-2.2 2.529-3.29zm-7.628 9.89c-.855 1.1-1.714 2.2-2.575 3.31l1.578 1.23c.862-1.11 1.721-2.21 2.577-3.32zm-7.775 9.96c-.437.55-.874 1.11-1.312 1.67l1.571 1.23c.439-.56.877-1.11 1.314-1.67z"/><g filter="url(#a)"><circle cx="368" cy="871" r="20" fill="var(--color-primary)"/><circle cx="368" cy="871" r="19.5" stroke="var(--color-primary)" stroke-dasharray="4 8"/></g><g filter="url(#b)"><circle cx="139" cy="95" r="20" fill="var(--color-primary)"/><circle cx="139" cy="95" r="19.5" stroke="var(--color-primary)" stroke-dasharray="4 8"/></g><defs><filter id="a" width="120" height="120" x="318" y="821" color-interpolation-filters="sRGB" filterUnits="userSpaceOnUse"><feFlood flood-opacity="0" result="BackgroundImageFix"/><feColorMatrix in="SourceAlpha" result="hardAlpha" values="0 0 0 0 0 0 0 0 0 0 0 0 0 0 0 0 0 0 127 0"/><feOffset dx="10" dy="10"/><feGaussianBlur stdDeviation="20"/><feComposite in2="hardAlpha" operator="out"/><feColorMatrix values="0 0 0 0 0.521569 0 0 0 0 0.521569 0 0 0 0 0.521569 0 0 0 0.25 0"/><feBlend in2="BackgroundImageFix" result="effect1_dropShadow_47_150"/><feBlend in="SourceGraphic" in2="effect1_dropShadow_47_150" result="shape"/></filter><filter id="b" width="120" height="120" x="89" y="45" color-interpolation-filters="sRGB" filterUnits="userSpaceOnUse"><feFlood flood-opacity="0" result="BackgroundImageFix"/><feColorMatrix in="SourceAlpha" result="hardAlpha" values="0 0 0 0 0 0 0 0 0 0 0 0 0 0 0 0 0 0 127 0"/><feOffset dx="10" dy="10"/><feGaussianBlur stdDeviation="20"/><feComposite in2="hardAlpha" operator="out"/><feColorMatrix values="0 0 0 0 0.521569 0 0 0 0 0.521569 0 0 0 0 0.521569 0 0 0 0.25 0"/><feBlend in2="BackgroundImageFix" result="effect1_dropShadow_47_150"/><feBlend in="SourceGraphic" in2="effect1_dropShadow_47_150" result="shape"/></filter></defs></svg>