<svg xmlns="http://www.w3.org/2000/svg" width="53" height="53" fill="none"><circle cx="26.75" cy="26.984" r="26" fill="#FF5758"/><path fill="#fff" d="M31.15 40.704c-.44 0-.88.04-1.32 0-2.2-.12-4.44-.08-6.68-.04-.48 0-.84-.12-1.12-.48-.2-.24-.44-.4-.48-.72-.08-.36-.16-.76-.16-1.12-.04-.48-.04-.96 0-1.44 0-.52.2-1.04.4-1.52.24-.64.64-1.16 1.08-1.64.44-.48.84-.96 1.24-1.44.8-.96 1.4-2.04 2.08-3.04.56-.88 1.16-1.8 1.72-2.68.48-.72.84-1.44 1.12-2.24.16-.56.4-1.08.56-1.6.28-.8.36-1.68.32-2.52-.04-.52-.16-1-.44-1.48-.28-.52-1-.92-1.68-.64-.32.12-.6.36-.8.64-.12.16-.2.36-.32.56-.32.48-.76.68-1.32.72-.12.04-.24 0-.32-.04l-2.52-.72a.755.755 0 0 1-.48-.44c-.04-.12-.08-.2-.12-.28-.12-.68-.12-1.36.16-2 .28-.68.64-1.28 1.04-1.92.24-.36.56-.64.88-.92.12-.12.32-.16.48-.24.76-.44 1.52-.84 2.36-1.08.16-.04.28-.08.44-.08.56 0 1.16 0 1.72.12.12.04.24.04.4.04.8.08 1.48.4 2.08.92.56.52 1.08 1.08 1.52 1.72.32.44.64.84.88 1.32.4.8.6 1.64.76 2.52.32 1.72.28 3.44.04 5.12-.28 1.84-.84 3.52-1.88 5.04-.76 1.2-1.6 2.36-2.44 3.52-.24.36-.56.64-.84 1-.2.24-.4.52-.6.76-.2.24-.16.52-.04.76.12.2.32.2.52.2 1.28 0 2.52.04 3.76.04.28 0 .48.08.72.28.36.32.6.68.64 1.16.12.84.16 1.64-.04 2.48-.04.16-.08.36-.2.52-.24.52-.6.88-1.24.84h-1.88v.04"/></svg>