<svg xmlns="http://www.w3.org/2000/svg" width="53" height="53" fill="none"><circle cx="26.75" cy="26.984" r="26" fill="#FF5758"/><path fill="#fff" d="M31.51 27.264v5.96c0 1.6-.04 3.16-.04 4.72 0 .6-.08 1.12-.2 1.68-.12.44-.36.72-.76.88-.12.04-.24.08-.36.08h-2.2c-.24 0-.44-.04-.56-.2l-.08-.08c-.72-.52-.88-1.28-.88-2.04-.04-1.84 0-3.72 0-5.56 0-1.56-.04-3.16-.08-4.76l-.12-7.36c0-.24-.04-.44-.12-.64-.12-.36-.4-.44-.76-.24s-.68.48-1.04.72c-.32.2-.64.4-.96.64-.36.2-.72.16-1.08.08-.52-.12-.8-.48-.88-1a7.14 7.14 0 0 1 .04-1.6c.04-.52.2-1.04.36-1.56.12-.4.36-.72.56-1.08l.2-.2c.6-.44 1.24-.92 1.84-1.4.16-.12.32-.2.48-.32.4-.28.76-.52 1.16-.8.64-.48 1.44-.64 2.24-.72.44-.04.92 0 1.4 0 .16 0 .32.08.44.16.56.36.76.88.88 1.48.16.84.28 1.64.28 2.48.04.64.08 1.32.12 2 .04 1.2.12 2.4.12 3.64v5.04"/></svg>